{
  "source": "C:\\Users\\Peter\\Desktop\\stuff\\MIUN\\quantitative_research\\video_compression\\videos\\BVI-HD\\BVI-HD_CDVL_videos\\ORIG\\CloudsZoom_1920x1080_60fps.mp4",
  "output": "C:\\Users\\Peter\\Desktop\\stuff\\MIUN\\quantitative_research\\video_compression\\compressed_videos\\BVI-HD\\hevc\\3\\CloudsZoom_1920x1080_60fps_hevc.mp4",
  "codec": "hevc",
  "ok": "Input #0, mov,mp4,m4a,3gp,3g2,mj2, from 'C:\\Users\\Peter\\Desktop\\stuff\\MIUN\\quantitative_research\\video_compression\\videos\\BVI-HD\\BVI-HD_CDVL_videos\\ORIG\\CloudsZoom_1920x1080_60fps.mp4':\n  Metadata:\n    major_brand     : isom\n    minor_version   : 512\n    compatible_brands: isomiso2avc1mp41\n    encoder         : Lavf54.28.101\n  Duration: 00:00:05.00, start: 0.000000, bitrate: 32589 kb/s\n  Stream #0:0[0x1](und): Video: h264 (High 4:4:4 Predictive) (avc1 / 0x31637661), yuv420p(progressive), 1920x1080, 32586 kb/s, 60 fps, 60 tbr, 60 tbn (default)\n    Metadata:\n      handler_name    : VideoHandler\n      vendor_id       : [0][0][0][0]\n[out#0/mp4 @ 000001cee2daaac0] Codec AVOption b:a (set bitrate (in bits/s)) has not been used for any stream. The most likely reason is either wrong type (e.g. a video option with no video streams) or that it is a private option of some decoder which was not actually used for any stream.\nStream mapping:\n  Stream #0:0 -> #0:0 (h264 (native) -> hevc (libx265))\nPress [q] to stop, [?] for help\n[libx265 @ 000001cee35b00c0] Unknown option: \"aq-mode.\nx265 [info]: HEVC encoder version 4.1+190-8f11c33ac\nx265 [info]: build info [Windows][GCC 15.1.0][64 bit] 10bit\nx265 [info]: using cpu capabilities: MMX2 SSE2Fast LZCNT SSSE3 SSE4.2 AVX FMA3 BMI2 AVX2\nx265 [info]: Main 10 profile, Level-4.1 (Main tier)\nx265 [info]: Thread pool created using 12 threads\nx265 [info]: Slices                              : 1\nx265 [info]: frame threads / pool features       : 3 / wpp(17 rows)\nx265 [info]: Coding QT: max CU size, min CU size : 64 / 8\nx265 [info]: Residual QT: max TU size, max depth : 32 / 1 inter / 1 intra\nx265 [info]: ME / range / subpel / merge         : star / 57 / 3 / 3\nx265 [info]: Keyframe min / max / scenecut / bias  : 25 / 250 / 40 / 5.00 \nx265 [info]: Lookahead / bframes / badapt        : 25 / 4 / 2\nx265 [info]: b-pyramid / weightp / weightb       : 1 / 1 / 0\nx265 [info]: References / ref-limit  cu / depth  : 4 / on / on\nx265 [info]: AQ: mode / str / qg-size / cu-tree  : 2 / 1.0 / 32 / 1\nx265 [info]: Rate Control / qCompress            : ABR-3000 kbps / 0.60\nx265 [info]: VBV/HRD buffer / max-rate / init    : 3000 / 3000 / 0.750\nx265 [info]: tools: rect limit-modes rd=4 psy-rd=2.00 rdoq=2 psy-rdoq=1.00\nx265 [info]: tools: rskip mode=1 signhide tmvp strong-intra-smoothing lslices=4\nx265 [info]: tools: deblock sao dhdr10-info\nOutput #0, mp4, to 'C:\\Users\\Peter\\Desktop\\stuff\\MIUN\\quantitative_research\\video_compression\\compressed_videos\\BVI-HD\\hevc\\3\\CloudsZoom_1920x1080_60fps_hevc.mp4':\n  Metadata:\n    major_brand     : isom\n    minor_version   : 512\n    compatible_brands: isomiso2avc1mp41\n    encoder         : Lavf62.3.100\n  Stream #0:0(und): Video: hevc (hev1 / 0x31766568), yuv420p10le(tv, progressive), 1920x1080, q=2-31, 3000 kb/s, 60 fps, 15360 tbn (default)\n    Metadata:\n      encoder         : Lavc62.11.100 libx265\n      handler_name    : VideoHandler\n      vendor_id       : [0][0][0][0]\n    Side data:\n      cpb: bitrate max/min/avg: 3000000/0/3000000 buffer size: 3000000 vbv_delay: N/A\nframe=    0 fps=0.0 q=0.0 size=       0KiB time=N/A bitrate=N/A speed=N/A elapsed=0:00:00.50    \nframe=    0 fps=0.0 q=0.0 size=       0KiB time=N/A bitrate=N/A speed=N/A elapsed=0:00:01.03    \nframe=    0 fps=0.0 q=0.0 size=       0KiB time=N/A bitrate=N/A speed=N/A elapsed=0:00:01.55    \nframe=    0 fps=0.0 q=0.0 size=       0KiB time=N/A bitrate=N/A speed=N/A elapsed=0:00:02.08    \nframe=    1 fps=0.4 q=30.3 size=       0KiB time=-00:00:00.01 bitrate=N/A speed=N/A elapsed=0:00:02.58    \nframe=    2 fps=0.6 q=41.0 size=       0KiB time=00:00:00.00 bitrate=N/A speed=   0x elapsed=0:00:03.10    \nframe=    4 fps=1.1 q=37.0 size=       0KiB time=00:00:00.03 bitrate=  10.6kbits/s speed=0.00919x elapsed=0:00:03.62    \nframe=    5 fps=1.2 q=37.0 size=       0KiB time=00:00:00.05 bitrate=   7.0kbits/s speed=0.0121x elapsed=0:00:04.13    \nframe=    7 fps=1.5 q=34.1 size=       0KiB time=00:00:00.08 bitrate=   4.2kbits/s speed=0.0179x elapsed=0:00:04.65    \nframe=    9 fps=1.7 q=35.0 size=       0KiB time=00:00:00.11 bitrate=   3.0kbits/s speed=0.0225x elapsed=0:00:05.17    \nframe=   10 fps=1.8 q=31.2 size=       0KiB time=00:00:00.13 bitrate=   2.6kbits/s speed=0.0235x elapsed=0:00:05.67    \nframe=   11 fps=1.8 q=29.3 size=       0KiB time=00:00:00.15 bitrate=   2.3kbits/s speed=0.0242x elapsed=0:00:06.20    \nframe=   12 fps=1.8 q=23.9 size=       0KiB time=00:00:00.16 bitrate=   2.1kbits/s speed=0.0248x elapsed=0:00:06.70    \nframe=   13 fps=1.8 q=29.4 size=       0KiB time=00:00:00.18 bitrate=   1.9kbits/s speed=0.0254x elapsed=0:00:07.22    \nframe=   14 fps=1.8 q=30.3 size=       0KiB time=00:00:00.20 bitrate=   1.8kbits/s speed=0.0258x elapsed=0:00:07.74    \nframe=   15 fps=1.8 q=25.2 size=       0KiB time=00:00:00.21 bitrate=   1.6kbits/s speed=0.0262x elapsed=0:00:08.26    \nframe=   17 fps=1.9 q=19.9 size=       0KiB time=00:00:00.25 bitrate=   1.4kbits/s speed=0.0285x elapsed=0:00:08.76    \nframe=   18 fps=1.9 q=23.9 size=       0KiB time=00:00:00.26 bitrate=   1.3kbits/s speed=0.0287x elapsed=0:00:09.28    \nframe=   18 fps=1.8 q=23.9 size=       0KiB time=00:00:00.26 bitrate=   1.3kbits/s speed=0.0272x elapsed=0:00:09.80    \nframe=   19 fps=1.8 q=23.9 size=       0KiB time=00:00:00.28 bitrate=   1.2kbits/s speed=0.0274x elapsed=0:00:10.33    \nframe=   19 fps=1.8 q=23.9 size=       0KiB time=00:00:00.28 bitrate=   1.2kbits/s speed=0.0262x elapsed=0:00:10.83    \nframe=   20 fps=1.8 q=19.9 size=       0KiB time=00:00:00.30 bitrate=   1.2kbits/s speed=0.0264x elapsed=0:00:11.35    \nframe=   21 fps=1.8 q=20.6 size=       0KiB time=00:00:00.31 bitrate=   1.1kbits/s speed=0.0267x elapsed=0:00:11.88    \nframe=   21 fps=1.7 q=20.6 size=       0KiB time=00:00:00.31 bitrate=   1.1kbits/s speed=0.0255x elapsed=0:00:12.41    \nframe=   21 fps=1.6 q=20.6 size=       0KiB time=00:00:00.31 bitrate=   1.1kbits/s speed=0.0245x elapsed=0:00:12.93    \nframe=   22 fps=1.6 q=16.1 size=       0KiB time=00:00:00.33 bitrate=   1.1kbits/s speed=0.0248x elapsed=0:00:13.45    \nframe=   23 fps=1.6 q=21.1 size=       0KiB time=00:00:00.35 bitrate=   1.0kbits/s speed=0.025x elapsed=0:00:13.97    \nframe=   23 fps=1.6 q=21.1 size=       0KiB time=00:00:00.35 bitrate=   1.0kbits/s speed=0.0241x elapsed=0:00:14.49    \nframe=   24 fps=1.6 q=19.2 size=       0KiB time=00:00:00.36 bitrate=   1.0kbits/s speed=0.0244x elapsed=0:00:15.02    \nframe=   24 fps=1.5 q=19.2 size=       0KiB time=00:00:00.36 bitrate=   1.0kbits/s speed=0.0236x elapsed=0:00:15.55    \nframe=   24 fps=1.5 q=19.2 size=       0KiB time=00:00:00.36 bitrate=   1.0kbits/s speed=0.0228x elapsed=0:00:16.09    \nframe=   24 fps=1.4 q=19.2 size=       0KiB time=00:00:00.36 bitrate=   1.0kbits/s speed=0.0221x elapsed=0:00:16.61    \nframe=   25 fps=1.5 q=19.7 size=       0KiB time=00:00:00.38 bitrate=   0.9kbits/s speed=0.0224x elapsed=0:00:17.13    \nframe=   25 fps=1.4 q=19.7 size=       0KiB time=00:00:00.38 bitrate=   0.9kbits/s speed=0.0217x elapsed=0:00:17.65    \nframe=   26 fps=1.4 q=18.0 size=       0KiB time=00:00:00.40 bitrate=   0.9kbits/s speed=0.022x elapsed=0:00:18.16    \nframe=   27 fps=1.4 q=14.7 size=       0KiB time=00:00:00.41 bitrate=   0.8kbits/s speed=0.0223x elapsed=0:00:18.68    \nframe=   27 fps=1.4 q=14.7 size=       0KiB time=00:00:00.41 bitrate=   0.8kbits/s speed=0.0217x elapsed=0:00:19.23    \nframe=   27 fps=1.4 q=14.7 size=       0KiB time=00:00:00.41 bitrate=   0.8kbits/s speed=0.0211x elapsed=0:00:19.74    \nframe=   29 fps=1.4 q=18.7 size=       0KiB time=00:00:00.45 bitrate=   0.8kbits/s speed=0.0222x elapsed=0:00:20.26    \nframe=   29 fps=1.4 q=18.7 size=       0KiB time=00:00:00.45 bitrate=   0.8kbits/s speed=0.0217x elapsed=0:00:20.77    \nframe=   29 fps=1.4 q=18.7 size=       0KiB time=00:00:00.45 bitrate=   0.8kbits/s speed=0.0211x elapsed=0:00:21.29    \nframe=   29 fps=1.3 q=18.7 size=       0KiB time=00:00:00.45 bitrate=   0.8kbits/s speed=0.0206x elapsed=0:00:21.83    \nframe=   29 fps=1.3 q=18.7 size=       0KiB time=00:00:00.45 bitrate=   0.8kbits/s speed=0.0201x elapsed=0:00:22.35    \nframe=   30 fps=1.3 q=19.0 size=       0KiB time=00:00:00.46 bitrate=   0.8kbits/s speed=0.0204x elapsed=0:00:22.89    \nframe=   30 fps=1.3 q=19.0 size=       0KiB time=00:00:00.46 bitrate=   0.8kbits/s speed=0.0199x elapsed=0:00:23.42    \nframe=   31 fps=1.3 q=19.1 size=       0KiB time=00:00:00.48 bitrate=   0.7kbits/s speed=0.0202x elapsed=0:00:23.92    \nframe=   32 fps=1.3 q=14.4 size=       0KiB time=00:00:00.50 bitrate=   0.7kbits/s speed=0.0204x elapsed=0:00:24.46    \nframe=   32 fps=1.3 q=14.4 size=       0KiB time=00:00:00.50 bitrate=   0.7kbits/s speed=0.02x elapsed=0:00:25.01    \nframe=   32 fps=1.3 q=14.4 size=       0KiB time=00:00:00.50 bitrate=   0.7kbits/s speed=0.0196x elapsed=0:00:25.57    \nframe=   33 fps=1.3 q=19.4 size=       0KiB time=00:00:00.51 bitrate=   0.7kbits/s speed=0.0198x elapsed=0:00:26.12    \nframe=   33 fps=1.2 q=19.4 size=       0KiB time=00:00:00.51 bitrate=   0.7kbits/s speed=0.0194x elapsed=0:00:26.65    \nframe=   34 fps=1.3 q=19.5 size=       0KiB time=00:00:00.53 bitrate=   0.7kbits/s speed=0.0196x elapsed=0:00:27.18    \nframe=   34 fps=1.2 q=19.5 size=       0KiB time=00:00:00.53 bitrate=   0.7kbits/s speed=0.0192x elapsed=0:00:27.71    \nframe=   34 fps=1.2 q=19.5 size=       0KiB time=00:00:00.53 bitrate=   0.7kbits/s speed=0.0189x elapsed=0:00:28.23    \nframe=   34 fps=1.2 q=19.5 size=       0KiB time=00:00:00.53 bitrate=   0.7kbits/s speed=0.0186x elapsed=0:00:28.74    \nframe=   34 fps=1.2 q=19.5 size=       0KiB time=00:00:00.53 bitrate=   0.7kbits/s speed=0.0182x elapsed=0:00:29.28    \nframe=   34 fps=1.1 q=19.5 size=       0KiB time=00:00:00.53 bitrate=   0.7kbits/s speed=0.0179x elapsed=0:00:29.81    \nframe=   34 fps=1.1 q=19.5 size=       0KiB time=00:00:00.53 bitrate=   0.7kbits/s speed=0.0176x elapsed=0:00:30.36    \nframe=   35 fps=1.1 q=19.2 size=       0KiB time=00:00:00.55 bitrate=   0.6kbits/s speed=0.0178x elapsed=0:00:30.90    \nframe=   36 fps=1.1 q=19.3 size=       0KiB time=00:00:00.56 bitrate=   0.6kbits/s speed=0.018x elapsed=0:00:31.43    \nframe=   36 fps=1.1 q=19.3 size=       0KiB time=00:00:00.56 bitrate=   0.6kbits/s speed=0.0177x elapsed=0:00:31.98    \nframe=   37 fps=1.1 q=14.3 size=       0KiB time=00:00:00.56 bitrate=   0.6kbits/s speed=0.0174x elapsed=0:00:32.58    \nframe=   37 fps=1.1 q=14.3 size=       0KiB time=00:00:00.58 bitrate=   0.6kbits/s speed=0.0176x elapsed=0:00:33.21    \nframe=   37 fps=1.1 q=14.3 size=       0KiB time=00:00:00.58 bitrate=   0.6kbits/s speed=0.0173x elapsed=0:00:33.78    \nframe=   37 fps=1.1 q=14.3 size=       0KiB time=00:00:00.58 bitrate=   0.6kbits/s speed=0.017x elapsed=0:00:34.37    \nframe=   37 fps=1.1 q=14.3 size=       0KiB time=00:00:00.58 bitrate=   0.6kbits/s speed=0.0167x elapsed=0:00:34.93    \nframe=   37 fps=1.0 q=14.3 size=       0KiB time=00:00:00.58 bitrate=   0.6kbits/s speed=0.0164x elapsed=0:00:35.50    \nframe=   37 fps=1.0 q=14.3 size=       0KiB time=00:00:00.58 bitrate=   0.6kbits/s speed=0.0162x elapsed=0:00:36.11    \nframe=   38 fps=1.0 q=19.5 size=       0KiB time=00:00:00.60 bitrate=   0.6kbits/s speed=0.0164x elapsed=0:00:36.69    \nframe=   38 fps=1.0 q=19.5 size=       0KiB time=00:00:00.60 bitrate=   0.6kbits/s speed=0.0161x elapsed=0:00:37.23    \nframe=   39 fps=1.0 q=20.0 size=       0KiB time=00:00:00.61 bitrate=   0.6kbits/s speed=0.0163x elapsed=0:00:37.79    \nframe=   39 fps=1.0 q=20.0 size=       0KiB time=00:00:00.61 bitrate=   0.6kbits/s speed=0.0161x elapsed=0:00:38.34    \nframe=   39 fps=1.0 q=20.0 size=       0KiB time=00:00:00.61 bitrate=   0.6kbits/s speed=0.0158x elapsed=0:00:38.93    \nframe=   40 fps=1.0 q=19.2 size=       0KiB time=00:00:00.63 bitrate=   0.6kbits/s speed=0.0161x elapsed=0:00:39.45    \nframe=   40 fps=1.0 q=19.2 size=       0KiB time=00:00:00.63 bitrate=   0.6kbits/s speed=0.0158x elapsed=0:00:39.96    \nframe=   40 fps=1.0 q=19.2 size=       0KiB time=00:00:00.63 bitrate=   0.6kbits/s speed=0.0156x elapsed=0:00:40.49    \nframe=   41 fps=1.0 q=19.2 size=       0KiB time=00:00:00.65 bitrate=   0.5kbits/s speed=0.0158x elapsed=0:00:41.03    \nframe=   42 fps=1.0 q=14.3 size=       0KiB time=00:00:00.66 bitrate=   0.5kbits/s speed=0.016x elapsed=0:00:41.55    \nframe=   42 fps=1.0 q=14.3 size=       0KiB time=00:00:00.66 bitrate=   0.5kbits/s speed=0.0158x elapsed=0:00:42.07    \nframe=   43 fps=1.0 q=19.5 size=       0KiB time=00:00:00.68 bitrate=   0.5kbits/s speed=0.016x elapsed=0:00:42.58    \nframe=   43 fps=1.0 q=19.5 size=       0KiB time=00:00:00.68 bitrate=   0.5kbits/s speed=0.0159x elapsed=0:00:43.10    \nframe=   44 fps=1.0 q=19.5 size=       0KiB time=00:00:00.70 bitrate=   0.5kbits/s speed=0.016x elapsed=0:00:43.64    \nframe=   44 fps=1.0 q=19.5 size=       0KiB time=00:00:00.70 bitrate=   0.5kbits/s speed=0.0158x elapsed=0:00:44.19    \nframe=   44 fps=1.0 q=19.5 size=       0KiB time=00:00:00.70 bitrate=   0.5kbits/s speed=0.0156x elapsed=0:00:44.73    \nframe=   45 fps=1.0 q=19.1 size=       0KiB time=00:00:00.71 bitrate=   0.5kbits/s speed=0.0158x elapsed=0:00:45.25    \nframe=   45 fps=1.0 q=19.1 size=       0KiB time=00:00:00.71 bitrate=   0.5kbits/s speed=0.0157x elapsed=0:00:45.77    \nframe=   45 fps=1.0 q=19.1 size=       0KiB time=00:00:00.71 bitrate=   0.5kbits/s speed=0.0155x elapsed=0:00:46.31    \nframe=   46 fps=1.0 q=18.7 size=       0KiB time=00:00:00.73 bitrate=   0.5kbits/s speed=0.0157x elapsed=0:00:46.84    \nframe=   46 fps=1.0 q=18.7 size=       0KiB time=00:00:00.73 bitrate=   0.5kbits/s speed=0.0155x elapsed=0:00:47.36    \nframe=   47 fps=1.0 q=14.3 size=       0KiB time=00:00:00.75 bitrate=   0.5kbits/s speed=0.0157x elapsed=0:00:47.89    \nframe=   47 fps=1.0 q=14.3 size=       0KiB time=00:00:00.75 bitrate=   0.5kbits/s speed=0.0155x elapsed=0:00:48.44    \nframe=   48 fps=1.0 q=19.0 size=       0KiB time=00:00:00.76 bitrate=   0.5kbits/s speed=0.0157x elapsed=0:00:48.97    \nframe=   49 fps=1.0 q=19.2 size=       0KiB time=00:00:00.78 bitrate=   0.4kbits/s speed=0.0158x elapsed=0:00:49.49    \nframe=   49 fps=1.0 q=19.2 size=       0KiB time=00:00:00.78 bitrate=   0.4kbits/s speed=0.0157x elapsed=0:00:50.00    \nframe=   49 fps=1.0 q=19.2 size=       0KiB time=00:00:00.78 bitrate=   0.4kbits/s speed=0.0155x elapsed=0:00:50.52    \nframe=   49 fps=1.0 q=19.2 size=       0KiB time=00:00:00.78 bitrate=   0.4kbits/s speed=0.0153x elapsed=0:00:51.05    \nframe=   49 fps=0.9 q=19.2 size=       0KiB time=00:00:00.78 bitrate=   0.4kbits/s speed=0.0152x elapsed=0:00:51.60    \nframe=   49 fps=0.9 q=19.2 size=       0KiB time=00:00:00.78 bitrate=   0.4kbits/s speed=0.015x elapsed=0:00:52.11    \nframe=   50 fps=0.9 q=18.7 size=       0KiB time=00:00:00.80 bitrate=   0.4kbits/s speed=0.0152x elapsed=0:00:52.63    \nframe=   50 fps=0.9 q=18.7 size=       0KiB time=00:00:00.80 bitrate=   0.4kbits/s speed=0.015x elapsed=0:00:53.16    \nframe=   51 fps=0.9 q=18.7 size=       0KiB time=00:00:00.81 bitrate=   0.4kbits/s speed=0.0152x elapsed=0:00:53.68    \nframe=   52 fps=1.0 q=13.6 size=       0KiB time=00:00:00.83 bitrate=   0.4kbits/s speed=0.0154x elapsed=0:00:54.22    \nframe=   52 fps=0.9 q=13.6 size=       0KiB time=00:00:00.83 bitrate=   0.4kbits/s speed=0.0152x elapsed=0:00:54.74    \nframe=   53 fps=1.0 q=18.7 size=     256KiB time=00:00:00.85 bitrate=2467.7kbits/s speed=0.0154x elapsed=0:00:55.29    \nframe=   53 fps=0.9 q=18.7 size=     256KiB time=00:00:00.85 bitrate=2467.7kbits/s speed=0.0152x elapsed=0:00:55.85    \nframe=   53 fps=0.9 q=18.7 size=     256KiB time=00:00:00.85 bitrate=2467.7kbits/s speed=0.0151x elapsed=0:00:56.41    \nframe=   54 fps=0.9 q=20.0 size=     256KiB time=00:00:00.86 bitrate=2420.2kbits/s speed=0.0152x elapsed=0:00:56.96    \nframe=   54 fps=0.9 q=20.0 size=     256KiB time=00:00:00.86 bitrate=2420.2kbits/s speed=0.0151x elapsed=0:00:57.52    \nframe=   54 fps=0.9 q=20.0 size=     256KiB time=00:00:00.86 bitrate=2420.2kbits/s speed=0.0149x elapsed=0:00:58.05    \nframe=   54 fps=0.9 q=20.0 size=     256KiB time=00:00:00.86 bitrate=2420.2kbits/s speed=0.0148x elapsed=0:00:58.62    \nframe=   54 fps=0.9 q=20.0 size=     256KiB time=00:00:00.86 bitrate=2420.2kbits/s speed=0.0146x elapsed=0:00:59.18    \nframe=   55 fps=0.9 q=19.2 size=     256KiB time=00:00:00.88 bitrate=2374.5kbits/s speed=0.0148x elapsed=0:00:59.71    \nframe=   55 fps=0.9 q=19.2 size=     256KiB time=00:00:00.88 bitrate=2374.5kbits/s speed=0.0147x elapsed=0:01:00.24    \nframe=   55 fps=0.9 q=19.2 size=     256KiB time=00:00:00.88 bitrate=2374.5kbits/s speed=0.0145x elapsed=0:01:00.75    \nframe=   55 fps=0.9 q=19.2 size=     256KiB time=00:00:00.88 bitrate=2374.5kbits/s speed=0.0144x elapsed=0:01:01.30    \nframe=   56 fps=0.9 q=19.3 size=     256KiB time=00:00:00.90 bitrate=2330.6kbits/s speed=0.0145x elapsed=0:01:01.86    \nframe=   56 fps=0.9 q=19.3 size=     256KiB time=00:00:00.90 bitrate=2330.6kbits/s speed=0.0144x elapsed=0:01:02.39    \nframe=   57 fps=0.9 q=14.0 size=     256KiB time=00:00:00.91 bitrate=2288.2kbits/s speed=0.0146x elapsed=0:01:02.94    \nframe=   57 fps=0.9 q=14.0 size=     256KiB time=00:00:00.91 bitrate=2288.2kbits/s speed=0.0144x elapsed=0:01:03.46    \nframe=   57 fps=0.9 q=14.0 size=     256KiB time=00:00:00.91 bitrate=2288.2kbits/s speed=0.0143x elapsed=0:01:04.02    \nframe=   58 fps=0.9 q=18.9 size=     256KiB time=00:00:00.93 bitrate=2247.3kbits/s speed=0.0144x elapsed=0:01:04.59    \nframe=   58 fps=0.9 q=18.9 size=     256KiB time=00:00:00.93 bitrate=2247.3kbits/s speed=0.0143x elapsed=0:01:05.19    \nframe=   58 fps=0.9 q=18.9 size=     256KiB time=00:00:00.93 bitrate=2247.3kbits/s speed=0.0142x elapsed=0:01:05.73    \nframe=   59 fps=0.9 q=19.7 size=     256KiB time=00:00:00.95 bitrate=2207.9kbits/s speed=0.0143x elapsed=0:01:06.27    \nframe=   59 fps=0.9 q=19.7 size=     256KiB time=00:00:00.95 bitrate=2207.9kbits/s speed=0.0142x elapsed=0:01:06.81    \nframe=   59 fps=0.9 q=19.7 size=     256KiB time=00:00:00.95 bitrate=2207.9kbits/s speed=0.0141x elapsed=0:01:07.33    \nframe=   59 fps=0.9 q=19.7 size=     256KiB time=00:00:00.95 bitrate=2207.9kbits/s speed=0.014x elapsed=0:01:07.86    \nframe=   59 fps=0.9 q=19.7 size=     256KiB time=00:00:00.95 bitrate=2207.9kbits/s speed=0.0139x elapsed=0:01:08.38    \nframe=   59 fps=0.9 q=19.7 size=     256KiB time=00:00:00.95 bitrate=2207.9kbits/s speed=0.0138x elapsed=0:01:08.89    \nframe=   60 fps=0.9 q=19.7 size=     256KiB time=00:00:00.96 bitrate=2169.8kbits/s speed=0.0139x elapsed=0:01:09.43    \nframe=   60 fps=0.9 q=19.7 size=     256KiB time=00:00:00.96 bitrate=2169.8kbits/s speed=0.0138x elapsed=0:01:09.99    \nframe=   61 fps=0.9 q=19.7 size=     256KiB time=00:00:00.98 bitrate=2133.1kbits/s speed=0.0139x elapsed=0:01:10.54    \nframe=   61 fps=0.9 q=19.7 size=     256KiB time=00:00:00.98 bitrate=2133.1kbits/s speed=0.0138x elapsed=0:01:11.09    \nframe=   61 fps=0.9 q=19.7 size=     256KiB time=00:00:00.98 bitrate=2133.1kbits/s speed=0.0137x elapsed=0:01:11.61    \nframe=   61 fps=0.8 q=19.7 size=     256KiB time=00:00:00.98 bitrate=2133.1kbits/s speed=0.0136x elapsed=0:01:12.14    \nframe=   62 fps=0.9 q=13.7 size=     256KiB time=00:00:01.00 bitrate=2097.5kbits/s speed=0.0138x elapsed=0:01:12.66    \nframe=   62 fps=0.8 q=13.7 size=     256KiB time=00:00:01.00 bitrate=2097.5kbits/s speed=0.0137x elapsed=0:01:13.22    \nframe=   62 fps=0.8 q=13.7 size=     256KiB time=00:00:01.00 bitrate=2097.5kbits/s speed=0.0136x elapsed=0:01:13.76    \nframe=   63 fps=0.8 q=19.4 size=     256KiB time=00:00:01.01 bitrate=2063.1kbits/s speed=0.0137x elapsed=0:01:14.32    \nframe=   63 fps=0.8 q=19.4 size=     256KiB time=00:00:01.01 bitrate=2063.1kbits/s speed=0.0136x elapsed=0:01:14.86    \nframe=   63 fps=0.8 q=19.4 size=     256KiB time=00:00:01.01 bitrate=2063.1kbits/s speed=0.0135x elapsed=0:01:15.43    \nframe=   63 fps=0.8 q=19.4 size=     256KiB time=00:00:01.01 bitrate=2063.1kbits/s speed=0.0134x elapsed=0:01:15.97    \nframe=   63 fps=0.8 q=19.4 size=     256KiB time=00:00:01.01 bitrate=2063.1kbits/s speed=0.0133x elapsed=0:01:16.49    \nframe=   63 fps=0.8 q=19.4 size=     256KiB time=00:00:01.01 bitrate=2063.1kbits/s speed=0.0132x elapsed=0:01:17.05    \nframe=   64 fps=0.8 q=19.7 size=     256KiB time=00:00:01.03 bitrate=2029.8kbits/s speed=0.0133x elapsed=0:01:17.58    \nframe=   64 fps=0.8 q=19.7 size=     256KiB time=00:00:01.03 bitrate=2029.8kbits/s speed=0.0132x elapsed=0:01:18.11    \nframe=   64 fps=0.8 q=19.7 size=     256KiB time=00:00:01.03 bitrate=2029.8kbits/s speed=0.0131x elapsed=0:01:18.63    \nframe=   64 fps=0.8 q=19.7 size=     256KiB time=00:00:01.03 bitrate=2029.8kbits/s speed=0.013x elapsed=0:01:19.19    \nframe=   64 fps=0.8 q=19.7 size=     256KiB time=00:00:01.03 bitrate=2029.8kbits/s speed=0.013x elapsed=0:01:19.70    \nframe=   65 fps=0.8 q=19.5 size=     256KiB time=00:00:01.05 bitrate=1997.6kbits/s speed=0.0131x elapsed=0:01:20.29    \nframe=   65 fps=0.8 q=19.5 size=     256KiB time=00:00:01.05 bitrate=1997.6kbits/s speed=0.013x elapsed=0:01:20.83    \nframe=   65 fps=0.8 q=19.5 size=     256KiB time=00:00:01.05 bitrate=1997.6kbits/s speed=0.0129x elapsed=0:01:21.38    \nframe=   65 fps=0.8 q=19.5 size=     256KiB time=00:00:01.05 bitrate=1997.6kbits/s speed=0.0128x elapsed=0:01:21.94    \nframe=   65 fps=0.8 q=19.5 size=     256KiB time=00:00:01.05 bitrate=1997.6kbits/s speed=0.0127x elapsed=0:01:22.50    \nframe=   66 fps=0.8 q=19.7 size=     256KiB time=00:00:01.06 bitrate=1966.4kbits/s speed=0.0128x elapsed=0:01:23.05    \nframe=   66 fps=0.8 q=19.7 size=     256KiB time=00:00:01.06 bitrate=1966.4kbits/s speed=0.0128x elapsed=0:01:23.57    \nframe=   67 fps=0.8 q=13.9 size=     256KiB time=00:00:01.08 bitrate=1936.2kbits/s speed=0.0129x elapsed=0:01:24.09    \nframe=   67 fps=0.8 q=13.9 size=     256KiB time=00:00:01.08 bitrate=1936.2kbits/s speed=0.0128x elapsed=0:01:24.61    \nframe=   67 fps=0.8 q=13.9 size=     256KiB time=00:00:01.08 bitrate=1936.2kbits/s speed=0.0127x elapsed=0:01:25.16    \nframe=   67 fps=0.8 q=13.9 size=     256KiB time=00:00:01.08 bitrate=1936.2kbits/s speed=0.0126x elapsed=0:01:25.72    \nframe=   67 fps=0.8 q=13.9 size=     256KiB time=00:00:01.08 bitrate=1936.2kbits/s speed=0.0126x elapsed=0:01:26.30    \nframe=   67 fps=0.8 q=13.9 size=     256KiB time=00:00:01.08 bitrate=1936.2kbits/s speed=0.0125x elapsed=0:01:26.87    \nframe=   67 fps=0.8 q=13.9 size=     256KiB time=00:00:01.08 bitrate=1936.2kbits/s speed=0.0124x elapsed=0:01:27.40    \nframe=   68 fps=0.8 q=19.5 size=     256KiB time=00:00:01.10 bitrate=1906.8kbits/s speed=0.0125x elapsed=0:01:27.97    \nframe=   68 fps=0.8 q=19.5 size=     256KiB time=00:00:01.10 bitrate=1906.8kbits/s speed=0.0124x elapsed=0:01:28.49    \nframe=   69 fps=0.8 q=19.8 size=     256KiB time=00:00:01.11 bitrate=1878.4kbits/s speed=0.0125x elapsed=0:01:29.04    \nframe=   69 fps=0.8 q=19.8 size=     256KiB time=00:00:01.11 bitrate=1878.4kbits/s speed=0.0125x elapsed=0:01:29.65    \nframe=   69 fps=0.8 q=19.8 size=     256KiB time=00:00:01.11 bitrate=1878.4kbits/s speed=0.0124x elapsed=0:01:30.23    \nframe=   69 fps=0.8 q=19.8 size=     256KiB time=00:00:01.11 bitrate=1878.4kbits/s speed=0.0123x elapsed=0:01:30.84    \nframe=   69 fps=0.8 q=19.8 size=     256KiB time=00:00:01.11 bitrate=1878.4kbits/s speed=0.0122x elapsed=0:01:31.42    \nframe=   69 fps=0.7 q=19.8 size=     256KiB time=00:00:01.11 bitrate=1878.4kbits/s speed=0.0121x elapsed=0:01:32.03    \nframe=   69 fps=0.7 q=19.8 size=     256KiB time=00:00:01.11 bitrate=1878.4kbits/s speed=0.0121x elapsed=0:01:32.55    \nframe=   69 fps=0.7 q=19.8 size=     256KiB time=00:00:01.11 bitrate=1878.4kbits/s speed=0.012x elapsed=0:01:33.08    \nframe=   69 fps=0.7 q=19.8 size=     256KiB time=00:00:01.11 bitrate=1878.4kbits/s speed=0.0119x elapsed=0:01:33.62    \nframe=   70 fps=0.7 q=19.6 size=     256KiB time=00:00:01.13 bitrate=1850.7kbits/s speed=0.012x elapsed=0:01:34.15    \nframe=   71 fps=0.7 q=19.7 size=     256KiB time=00:00:01.15 bitrate=1823.9kbits/s speed=0.0121x elapsed=0:01:34.67    \nframe=   71 fps=0.7 q=19.7 size=     256KiB time=00:00:01.15 bitrate=1823.9kbits/s speed=0.0121x elapsed=0:01:35.18    \nframe=   71 fps=0.7 q=19.7 size=     256KiB time=00:00:01.15 bitrate=1823.9kbits/s speed=0.012x elapsed=0:01:35.70    \nframe=   72 fps=0.7 q=14.2 size=     256KiB time=00:00:01.16 bitrate=1797.9kbits/s speed=0.0121x elapsed=0:01:36.22    \nframe=   73 fps=0.8 q=18.6 size=     256KiB time=00:00:01.18 bitrate=1772.5kbits/s speed=0.0122x elapsed=0:01:36.77    \nframe=   74 fps=0.8 q=20.1 size=     256KiB time=00:00:01.20 bitrate=1747.9kbits/s speed=0.0123x elapsed=0:01:37.28    \nframe=   74 fps=0.8 q=20.1 size=     256KiB time=00:00:01.20 bitrate=1747.9kbits/s speed=0.0123x elapsed=0:01:37.82    \nframe=   74 fps=0.8 q=20.1 size=     256KiB time=00:00:01.20 bitrate=1747.9kbits/s speed=0.0122x elapsed=0:01:38.35    \nframe=   74 fps=0.7 q=20.1 size=     256KiB time=00:00:01.20 bitrate=1747.9kbits/s speed=0.0121x elapsed=0:01:38.86    \nframe=   75 fps=0.8 q=19.6 size=     256KiB time=00:00:01.21 bitrate=1724.0kbits/s speed=0.0122x elapsed=0:01:39.38    \nframe=   75 fps=0.8 q=19.6 size=     256KiB time=00:00:01.21 bitrate=1724.0kbits/s speed=0.0122x elapsed=0:01:39.90    \nframe=   75 fps=0.7 q=19.6 size=     256KiB time=00:00:01.21 bitrate=1724.0kbits/s speed=0.0121x elapsed=0:01:40.44    \nframe=   75 fps=0.7 q=19.6 size=     256KiB time=00:00:01.21 bitrate=1724.0kbits/s speed=0.0121x elapsed=0:01:40.95    \nframe=   76 fps=0.7 q=19.9 size=     256KiB time=00:00:01.23 bitrate=1700.7kbits/s speed=0.0122x elapsed=0:01:41.48    \nframe=   76 fps=0.7 q=19.9 size=     256KiB time=00:00:01.23 bitrate=1700.7kbits/s speed=0.0121x elapsed=0:01:41.99    \nframe=   76 fps=0.7 q=19.9 size=     256KiB time=00:00:01.23 bitrate=1700.7kbits/s speed=0.012x elapsed=0:01:42.53    \nframe=   77 fps=0.7 q=14.3 size=     256KiB time=00:00:01.25 bitrate=1678.0kbits/s speed=0.0121x elapsed=0:01:43.06    \nframe=   78 fps=0.8 q=18.4 size=     256KiB time=00:00:01.26 bitrate=1655.9kbits/s speed=0.0122x elapsed=0:01:43.58    \nframe=   78 fps=0.7 q=18.4 size=     256KiB time=00:00:01.26 bitrate=1655.9kbits/s speed=0.0122x elapsed=0:01:44.08    \nframe=   79 fps=0.8 q=19.9 size=     256KiB time=00:00:01.28 bitrate=1634.4kbits/s speed=0.0123x elapsed=0:01:44.61    \nframe=   79 fps=0.8 q=19.9 size=     256KiB time=00:00:01.28 bitrate=1634.4kbits/s speed=0.0122x elapsed=0:01:45.14    \nframe=   79 fps=0.7 q=19.9 size=     256KiB time=00:00:01.28 bitrate=1634.4kbits/s speed=0.0121x elapsed=0:01:45.66    \nframe=   79 fps=0.7 q=19.9 size=     256KiB time=00:00:01.28 bitrate=1634.4kbits/s speed=0.0121x elapsed=0:01:46.19    \nframe=   79 fps=0.7 q=19.9 size=     256KiB time=00:00:01.28 bitrate=1634.4kbits/s speed=0.012x elapsed=0:01:46.72    \nframe=   80 fps=0.7 q=19.9 size=     256KiB time=00:00:01.30 bitrate=1613.5kbits/s speed=0.0121x elapsed=0:01:47.25    \nframe=   80 fps=0.7 q=19.9 size=     256KiB time=00:00:01.30 bitrate=1613.5kbits/s speed=0.0121x elapsed=0:01:47.77    \nframe=   81 fps=0.7 q=19.4 size=     256KiB time=00:00:01.31 bitrate=1593.0kbits/s speed=0.0122x elapsed=0:01:48.30    \nframe=   82 fps=0.8 q=14.6 size=     256KiB time=00:00:01.33 bitrate=1573.1kbits/s speed=0.0123x elapsed=0:01:48.82    \nframe=   82 fps=0.7 q=14.6 size=     256KiB time=00:00:01.33 bitrate=1573.1kbits/s speed=0.0122x elapsed=0:01:49.35    \nframe=   83 fps=0.8 q=18.9 size=     256KiB time=00:00:01.35 bitrate=1553.7kbits/s speed=0.0123x elapsed=0:01:49.89    \nframe=   84 fps=0.8 q=20.1 size=     256KiB time=00:00:01.36 bitrate=1534.8kbits/s speed=0.0124x elapsed=0:01:50.41    \nframe=   84 fps=0.8 q=20.1 size=     256KiB time=00:00:01.36 bitrate=1534.8kbits/s speed=0.0123x elapsed=0:01:50.93    \nframe=   84 fps=0.8 q=20.1 size=     256KiB time=00:00:01.36 bitrate=1534.8kbits/s speed=0.0123x elapsed=0:01:51.45    \nframe=   84 fps=0.8 q=20.1 size=     256KiB time=00:00:01.36 bitrate=1534.8kbits/s speed=0.0122x elapsed=0:01:51.97    \nframe=   84 fps=0.7 q=20.1 size=     256KiB time=00:00:01.36 bitrate=1534.8kbits/s speed=0.0121x elapsed=0:01:52.51    \nframe=   85 fps=0.8 q=20.8 size=     256KiB time=00:00:01.38 bitrate=1516.3kbits/s speed=0.0122x elapsed=0:01:53.03    \nframe=   85 fps=0.7 q=20.8 size=     256KiB time=00:00:01.38 bitrate=1516.3kbits/s speed=0.0122x elapsed=0:01:53.55    \nframe=   85 fps=0.7 q=20.8 size=     256KiB time=00:00:01.38 bitrate=1516.3kbits/s speed=0.0121x elapsed=0:01:54.08    \nframe=   86 fps=0.8 q=20.0 size=     256KiB time=00:00:01.40 bitrate=1498.2kbits/s speed=0.0122x elapsed=0:01:54.62    \nframe=   86 fps=0.7 q=20.0 size=     256KiB time=00:00:01.40 bitrate=1498.2kbits/s speed=0.0122x elapsed=0:01:55.18    \nframe=   87 fps=0.8 q=13.6 size=     256KiB time=00:00:01.41 bitrate=1480.6kbits/s speed=0.0122x elapsed=0:01:55.70    \nframe=   87 fps=0.7 q=13.6 size=     256KiB time=00:00:01.41 bitrate=1480.6kbits/s speed=0.0122x elapsed=0:01:56.20    \nframe=   88 fps=0.8 q=18.6 size=     256KiB time=00:00:01.43 bitrate=1463.4kbits/s speed=0.0123x elapsed=0:01:56.72    \nframe=   89 fps=0.8 q=20.4 size=     256KiB time=00:00:01.45 bitrate=1446.6kbits/s speed=0.0124x elapsed=0:01:57.26    \nframe=   89 fps=0.8 q=20.4 size=     256KiB time=00:00:01.45 bitrate=1446.6kbits/s speed=0.0123x elapsed=0:01:57.78    \nframe=   90 fps=0.8 q=19.3 size=     256KiB time=00:00:01.46 bitrate=1430.1kbits/s speed=0.0124x elapsed=0:01:58.31    \nframe=   91 fps=0.8 q=20.0 size=     256KiB time=00:00:01.48 bitrate=1414.0kbits/s speed=0.0125x elapsed=0:01:58.81    \nframe=   92 fps=0.8 q=14.2 size=     256KiB time=00:00:01.50 bitrate=1398.3kbits/s speed=0.0126x elapsed=0:01:59.34    \nframe=   93 fps=0.8 q=18.7 size=     512KiB time=00:00:01.51 bitrate=2765.7kbits/s speed=0.0127x elapsed=0:01:59.86    \nframe=   93 fps=0.8 q=18.7 size=     512KiB time=00:00:01.51 bitrate=2765.7kbits/s speed=0.0126x elapsed=0:02:00.38    \nframe=   94 fps=0.8 q=20.5 size=     512KiB time=00:00:01.53 bitrate=2735.6kbits/s speed=0.0127x elapsed=0:02:00.89    \nframe=   94 fps=0.8 q=20.5 size=     512KiB time=00:00:01.53 bitrate=2735.6kbits/s speed=0.0126x elapsed=0:02:01.42    \nframe=   94 fps=0.8 q=20.5 size=     512KiB time=00:00:01.53 bitrate=2735.6kbits/s speed=0.0126x elapsed=0:02:01.92    \nframe=   94 fps=0.8 q=20.5 size=     512KiB time=00:00:01.53 bitrate=2735.6kbits/s speed=0.0125x elapsed=0:02:02.45    \nframe=   94 fps=0.8 q=20.5 size=     512KiB time=00:00:01.53 bitrate=2735.6kbits/s speed=0.0125x elapsed=0:02:02.97    \nframe=   95 fps=0.8 q=20.3 size=     512KiB time=00:00:01.55 bitrate=2706.2kbits/s speed=0.0126x elapsed=0:02:03.49    \nframe=   95 fps=0.8 q=20.3 size=     512KiB time=00:00:01.55 bitrate=2706.2kbits/s speed=0.0125x elapsed=0:02:04.01    \nframe=   96 fps=0.8 q=20.0 size=     512KiB time=00:00:01.56 bitrate=2677.4kbits/s speed=0.0126x elapsed=0:02:04.53    \nframe=   97 fps=0.8 q=13.9 size=     512KiB time=00:00:01.58 bitrate=2649.3kbits/s speed=0.0127x elapsed=0:02:05.07    \nframe=   97 fps=0.8 q=13.9 size=     512KiB time=00:00:01.58 bitrate=2649.3kbits/s speed=0.0126x elapsed=0:02:05.62    \nframe=   98 fps=0.8 q=19.3 size=     512KiB time=00:00:01.60 bitrate=2621.7kbits/s speed=0.0127x elapsed=0:02:06.15    \nframe=   99 fps=0.8 q=21.0 size=     512KiB time=00:00:01.61 bitrate=2594.6kbits/s speed=0.0128x elapsed=0:02:06.66    \nframe=   99 fps=0.8 q=21.0 size=     512KiB time=00:00:01.61 bitrate=2594.6kbits/s speed=0.0127x elapsed=0:02:07.19    \nframe=   99 fps=0.8 q=21.0 size=     512KiB time=00:00:01.61 bitrate=2594.6kbits/s speed=0.0127x elapsed=0:02:07.72    \nframe=   99 fps=0.8 q=21.0 size=     512KiB time=00:00:01.61 bitrate=2594.6kbits/s speed=0.0126x elapsed=0:02:08.23    \nframe=  101 fps=0.8 q=21.0 size=     512KiB time=00:00:01.65 bitrate=2542.2kbits/s speed=0.0128x elapsed=0:02:08.77    \nframe=  101 fps=0.8 q=21.0 size=     512KiB time=00:00:01.65 bitrate=2542.2kbits/s speed=0.0128x elapsed=0:02:09.30    \nframe=  101 fps=0.8 q=21.0 size=     512KiB time=00:00:01.65 bitrate=2542.2kbits/s speed=0.0127x elapsed=0:02:09.83    \nframe=  101 fps=0.8 q=21.0 size=     512KiB time=00:00:01.65 bitrate=2542.2kbits/s speed=0.0127x elapsed=0:02:10.38    \nframe=  101 fps=0.8 q=21.0 size=     512KiB time=00:00:01.65 bitrate=2542.2kbits/s speed=0.0126x elapsed=0:02:10.89    \nframe=  102 fps=0.8 q=14.1 size=     512KiB time=00:00:01.66 bitrate=2516.8kbits/s speed=0.0127x elapsed=0:02:11.41    \nframe=  103 fps=0.8 q=19.1 size=     512KiB time=00:00:01.68 bitrate=2491.9kbits/s speed=0.0128x elapsed=0:02:11.94    \nframe=  104 fps=0.8 q=21.5 size=     512KiB time=00:00:01.70 bitrate=2467.4kbits/s speed=0.0128x elapsed=0:02:12.44    \nframe=  104 fps=0.8 q=21.5 size=     512KiB time=00:00:01.70 bitrate=2467.4kbits/s speed=0.0128x elapsed=0:02:12.96    \nframe=  104 fps=0.8 q=21.5 size=     512KiB time=00:00:01.70 bitrate=2467.4kbits/s speed=0.0127x elapsed=0:02:13.47    \nframe=  105 fps=0.8 q=20.0 size=     512KiB time=00:00:01.71 bitrate=2443.5kbits/s speed=0.0128x elapsed=0:02:13.99    \nframe=  106 fps=0.8 q=21.2 size=     512KiB time=00:00:01.73 bitrate=2420.0kbits/s speed=0.0129x elapsed=0:02:14.51    \nframe=  106 fps=0.8 q=21.2 size=     512KiB time=00:00:01.73 bitrate=2420.0kbits/s speed=0.0128x elapsed=0:02:15.04    \nframe=  107 fps=0.8 q=14.2 size=     512KiB time=00:00:01.75 bitrate=2396.9kbits/s speed=0.0129x elapsed=0:02:15.56    \nframe=  107 fps=0.8 q=14.2 size=     512KiB time=00:00:01.75 bitrate=2396.9kbits/s speed=0.0129x elapsed=0:02:16.10    \nframe=  109 fps=0.8 q=20.5 size=     512KiB time=00:00:01.78 bitrate=2352.1kbits/s speed=0.0131x elapsed=0:02:16.64    \nframe=  109 fps=0.8 q=20.5 size=     512KiB time=00:00:01.78 bitrate=2352.1kbits/s speed=0.013x elapsed=0:02:17.18    \nframe=  109 fps=0.8 q=20.5 size=     512KiB time=00:00:01.78 bitrate=2352.1kbits/s speed=0.013x elapsed=0:02:17.69    \nframe=  109 fps=0.8 q=20.5 size=     512KiB time=00:00:01.78 bitrate=2352.1kbits/s speed=0.0129x elapsed=0:02:18.21    \nframe=  109 fps=0.8 q=20.5 size=     512KiB time=00:00:01.78 bitrate=2352.1kbits/s speed=0.0129x elapsed=0:02:18.72    \nframe=  109 fps=0.8 q=20.5 size=     512KiB time=00:00:01.78 bitrate=2352.1kbits/s speed=0.0128x elapsed=0:02:19.24    \nframe=  109 fps=0.8 q=20.5 size=     512KiB time=00:00:01.78 bitrate=2352.1kbits/s speed=0.0128x elapsed=0:02:19.76    \nframe=  110 fps=0.8 q=19.8 size=     512KiB time=00:00:01.80 bitrate=2330.4kbits/s speed=0.0128x elapsed=0:02:20.31    \nframe=  110 fps=0.8 q=19.8 size=     512KiB time=00:00:01.80 bitrate=2330.4kbits/s speed=0.0128x elapsed=0:02:20.85    \nframe=  110 fps=0.8 q=19.8 size=     512KiB time=00:00:01.80 bitrate=2330.4kbits/s speed=0.0127x elapsed=0:02:21.36    \nframe=  111 fps=0.8 q=20.6 size=     512KiB time=00:00:01.81 bitrate=2309.0kbits/s speed=0.0128x elapsed=0:02:21.91    \nframe=  112 fps=0.8 q=13.6 size=     512KiB time=00:00:01.83 bitrate=2288.0kbits/s speed=0.0129x elapsed=0:02:22.47    \nframe=  112 fps=0.8 q=13.6 size=     512KiB time=00:00:01.83 bitrate=2288.0kbits/s speed=0.0128x elapsed=0:02:22.99    \nframe=  113 fps=0.8 q=19.1 size=     512KiB time=00:00:01.85 bitrate=2267.4kbits/s speed=0.0129x elapsed=0:02:23.54    \nframe=  114 fps=0.8 q=20.4 size=     512KiB time=00:00:01.86 bitrate=2247.1kbits/s speed=0.013x elapsed=0:02:24.05    \nframe=  114 fps=0.8 q=20.4 size=     512KiB time=00:00:01.86 bitrate=2247.1kbits/s speed=0.0129x elapsed=0:02:24.57    \nframe=  114 fps=0.8 q=20.4 size=     512KiB time=00:00:01.86 bitrate=2247.1kbits/s speed=0.0129x elapsed=0:02:25.11    \nframe=  114 fps=0.8 q=20.4 size=     512KiB time=00:00:01.86 bitrate=2247.1kbits/s speed=0.0128x elapsed=0:02:25.69    \nframe=  114 fps=0.8 q=20.4 size=     512KiB time=00:00:01.86 bitrate=2247.1kbits/s speed=0.0128x elapsed=0:02:26.27    \nframe=  114 fps=0.8 q=20.4 size=     512KiB time=00:00:01.86 bitrate=2247.1kbits/s speed=0.0127x elapsed=0:02:26.88    \nframe=  114 fps=0.8 q=20.4 size=     512KiB time=00:00:01.86 bitrate=2247.1kbits/s speed=0.0127x elapsed=0:02:27.48    \nframe=  114 fps=0.8 q=20.4 size=     512KiB time=00:00:01.86 bitrate=2247.1kbits/s speed=0.0126x elapsed=0:02:28.02    \nframe=  114 fps=0.8 q=20.4 size=     512KiB time=00:00:01.86 bitrate=2247.1kbits/s speed=0.0126x elapsed=0:02:28.56    \nframe=  115 fps=0.8 q=20.1 size=     512KiB time=00:00:01.88 bitrate=2227.3kbits/s speed=0.0126x elapsed=0:02:29.09    \nframe=  115 fps=0.8 q=20.1 size=     512KiB time=00:00:01.88 bitrate=2227.3kbits/s speed=0.0126x elapsed=0:02:29.64    \nframe=  115 fps=0.8 q=20.1 size=     512KiB time=00:00:01.88 bitrate=2227.3kbits/s speed=0.0125x elapsed=0:02:30.22    \nframe=  116 fps=0.8 q=20.6 size=     512KiB time=00:00:01.90 bitrate=2207.7kbits/s speed=0.0126x elapsed=0:02:30.78    \nframe=  116 fps=0.8 q=20.6 size=     512KiB time=00:00:01.90 bitrate=2207.7kbits/s speed=0.0126x elapsed=0:02:31.30    \nframe=  117 fps=0.8 q=14.0 size=     512KiB time=00:00:01.91 bitrate=2188.5kbits/s speed=0.0126x elapsed=0:02:31.82    \nframe=  118 fps=0.8 q=19.0 size=     512KiB time=00:00:01.93 bitrate=2169.7kbits/s speed=0.0127x elapsed=0:02:32.34    \nframe=  118 fps=0.8 q=19.0 size=     512KiB time=00:00:01.93 bitrate=2169.7kbits/s speed=0.0126x elapsed=0:02:32.87    \nframe=  119 fps=0.8 q=21.1 size=     512KiB time=00:00:01.95 bitrate=2151.1kbits/s speed=0.0127x elapsed=0:02:33.41    \nframe=  120 fps=0.8 q=20.5 size=     512KiB time=00:00:01.96 bitrate=2132.9kbits/s speed=0.0128x elapsed=0:02:33.93    \nframe=  121 fps=0.8 q=20.5 size=     512KiB time=00:00:01.98 bitrate=2115.0kbits/s speed=0.0128x elapsed=0:02:34.47    \nframe=  121 fps=0.8 q=20.5 size=     512KiB time=00:00:01.98 bitrate=2115.0kbits/s speed=0.0128x elapsed=0:02:34.99    \nframe=  121 fps=0.8 q=20.5 size=     512KiB time=00:00:01.98 bitrate=2115.0kbits/s speed=0.0128x elapsed=0:02:35.54    \nframe=  122 fps=0.8 q=14.0 size=     512KiB time=00:00:02.00 bitrate=2097.3kbits/s speed=0.0128x elapsed=0:02:36.09    \nframe=  123 fps=0.8 q=18.9 size=     512KiB time=00:00:02.01 bitrate=2080.0kbits/s speed=0.0129x elapsed=0:02:36.60    \nframe=  124 fps=0.8 q=20.6 size=     512KiB time=00:00:02.03 bitrate=2062.9kbits/s speed=0.0129x elapsed=0:02:37.13    \nframe=  124 fps=0.8 q=20.6 size=     512KiB time=00:00:02.03 bitrate=2062.9kbits/s speed=0.0129x elapsed=0:02:37.67    \nframe=  125 fps=0.8 q=20.3 size=     512KiB time=00:00:02.05 bitrate=2046.2kbits/s speed=0.013x elapsed=0:02:38.19    \nframe=  126 fps=0.8 q=19.7 size=     512KiB time=00:00:02.06 bitrate=2029.7kbits/s speed=0.013x elapsed=0:02:38.71    \nframe=  127 fps=0.8 q=14.2 size=     512KiB time=00:00:02.08 bitrate=2013.4kbits/s speed=0.0131x elapsed=0:02:39.25    \nframe=  127 fps=0.8 q=14.2 size=     512KiB time=00:00:02.08 bitrate=2013.4kbits/s speed=0.013x elapsed=0:02:39.75    \nframe=  128 fps=0.8 q=18.9 size=     512KiB time=00:00:02.10 bitrate=1997.5kbits/s speed=0.0131x elapsed=0:02:40.27    \nframe=  129 fps=0.8 q=20.1 size=     512KiB time=00:00:02.11 bitrate=1981.7kbits/s speed=0.0132x elapsed=0:02:40.79    \nframe=  129 fps=0.8 q=20.1 size=     512KiB time=00:00:02.11 bitrate=1981.7kbits/s speed=0.0131x elapsed=0:02:41.30    \nframe=  130 fps=0.8 q=20.8 size=     512KiB time=00:00:02.13 bitrate=1966.2kbits/s speed=0.0132x elapsed=0:02:41.81    \nframe=  130 fps=0.8 q=20.8 size=     512KiB time=00:00:02.13 bitrate=1966.2kbits/s speed=0.0131x elapsed=0:02:42.34    \nframe=  130 fps=0.8 q=20.8 size=     512KiB time=00:00:02.13 bitrate=1966.2kbits/s speed=0.0131x elapsed=0:02:42.89    \nframe=  130 fps=0.8 q=20.8 size=     512KiB time=00:00:02.13 bitrate=1966.2kbits/s speed=0.0131x elapsed=0:02:43.40    \nframe=  132 fps=0.8 q=13.6 size=     512KiB time=00:00:02.16 bitrate=1936.0kbits/s speed=0.0132x elapsed=0:02:43.92    \nframe=  133 fps=0.8 q=19.1 size=     768KiB time=00:00:02.18 bitrate=2881.7kbits/s speed=0.0133x elapsed=0:02:44.45    \nframe=  133 fps=0.8 q=19.1 size=     768KiB time=00:00:02.18 bitrate=2881.7kbits/s speed=0.0132x elapsed=0:02:44.97    \nframe=  134 fps=0.8 q=20.5 size=     768KiB time=00:00:02.20 bitrate=2859.9kbits/s speed=0.0133x elapsed=0:02:45.49    \nframe=  135 fps=0.8 q=19.8 size=     768KiB time=00:00:02.21 bitrate=2838.4kbits/s speed=0.0134x elapsed=0:02:46.01    \nframe=  136 fps=0.8 q=20.7 size=     768KiB time=00:00:02.23 bitrate=2817.2kbits/s speed=0.0134x elapsed=0:02:46.52    \nframe=  136 fps=0.8 q=20.7 size=     768KiB time=00:00:02.23 bitrate=2817.2kbits/s speed=0.0134x elapsed=0:02:47.03    \nframe=  136 fps=0.8 q=20.7 size=     768KiB time=00:00:02.23 bitrate=2817.2kbits/s speed=0.0133x elapsed=0:02:47.55    \nframe=  137 fps=0.8 q=13.7 size=     768KiB time=00:00:02.25 bitrate=2796.4kbits/s speed=0.0134x elapsed=0:02:48.07    \nframe=  139 fps=0.8 q=20.4 size=     768KiB time=00:00:02.28 bitrate=2755.5kbits/s speed=0.0135x elapsed=0:02:48.60    \nframe=  139 fps=0.8 q=20.4 size=     768KiB time=00:00:02.28 bitrate=2755.5kbits/s speed=0.0135x elapsed=0:02:49.11    \nframe=  139 fps=0.8 q=20.4 size=     768KiB time=00:00:02.28 bitrate=2755.5kbits/s speed=0.0135x elapsed=0:02:49.64    \nframe=  140 fps=0.8 q=21.0 size=     768KiB time=00:00:02.30 bitrate=2735.6kbits/s speed=0.0135x elapsed=0:02:50.18    \nframe=  141 fps=0.8 q=20.6 size=     768KiB time=00:00:02.31 bitrate=2715.9kbits/s speed=0.0136x elapsed=0:02:50.70    \nframe=  141 fps=0.8 q=20.6 size=     768KiB time=00:00:02.31 bitrate=2715.9kbits/s speed=0.0135x elapsed=0:02:51.23    \nframe=  142 fps=0.8 q=14.3 size=     768KiB time=00:00:02.33 bitrate=2696.5kbits/s speed=0.0136x elapsed=0:02:51.77    \nframe=  142 fps=0.8 q=14.3 size=     768KiB time=00:00:02.33 bitrate=2696.5kbits/s speed=0.0135x elapsed=0:02:52.33    \nframe=  142 fps=0.8 q=14.3 size=     768KiB time=00:00:02.33 bitrate=2696.5kbits/s speed=0.0135x elapsed=0:02:52.92    \nframe=  143 fps=0.8 q=19.3 size=     768KiB time=00:00:02.35 bitrate=2677.4kbits/s speed=0.0135x elapsed=0:02:53.47    \nframe=  143 fps=0.8 q=19.3 size=     768KiB time=00:00:02.35 bitrate=2677.4kbits/s speed=0.0135x elapsed=0:02:54.00    \nframe=  143 fps=0.8 q=19.3 size=     768KiB time=00:00:02.35 bitrate=2677.4kbits/s speed=0.0135x elapsed=0:02:54.54    \nframe=  143 fps=0.8 q=19.3 size=     768KiB time=00:00:02.35 bitrate=2677.4kbits/s speed=0.0134x elapsed=0:02:55.11    \nframe=  143 fps=0.8 q=19.3 size=     768KiB time=00:00:02.35 bitrate=2677.4kbits/s speed=0.0134x elapsed=0:02:55.65    \nframe=  143 fps=0.8 q=19.3 size=     768KiB time=00:00:02.35 bitrate=2677.4kbits/s speed=0.0133x elapsed=0:02:56.19    \nframe=  143 fps=0.8 q=19.3 size=     768KiB time=00:00:02.35 bitrate=2677.4kbits/s speed=0.0133x elapsed=0:02:56.72    \nframe=  144 fps=0.8 q=21.2 size=     768KiB time=00:00:02.36 bitrate=2658.5kbits/s speed=0.0134x elapsed=0:02:57.24    \nframe=  144 fps=0.8 q=21.2 size=     768KiB time=00:00:02.36 bitrate=2658.5kbits/s speed=0.0133x elapsed=0:02:57.76    \nframe=  145 fps=0.8 q=20.5 size=     768KiB time=00:00:02.38 bitrate=2639.9kbits/s speed=0.0134x elapsed=0:02:58.32    \nframe=  145 fps=0.8 q=20.5 size=     768KiB time=00:00:02.38 bitrate=2639.9kbits/s speed=0.0133x elapsed=0:02:58.87    \nframe=  145 fps=0.8 q=20.5 size=     768KiB time=00:00:02.38 bitrate=2639.9kbits/s speed=0.0133x elapsed=0:02:59.43    \nframe=  145 fps=0.8 q=20.5 size=     768KiB time=00:00:02.38 bitrate=2639.9kbits/s speed=0.0132x elapsed=0:02:59.95    \nframe=  145 fps=0.8 q=20.5 size=     768KiB time=00:00:02.38 bitrate=2639.9kbits/s speed=0.0132x elapsed=0:03:00.48    \nframe=  145 fps=0.8 q=20.5 size=     768KiB time=00:00:02.38 bitrate=2639.9kbits/s speed=0.0132x elapsed=0:03:01.02    \nframe=  145 fps=0.8 q=20.5 size=     768KiB time=00:00:02.38 bitrate=2639.9kbits/s speed=0.0131x elapsed=0:03:01.56    \nframe=  146 fps=0.8 q=20.1 size=     768KiB time=00:00:02.40 bitrate=2621.6kbits/s speed=0.0132x elapsed=0:03:02.12    \nframe=  146 fps=0.8 q=20.1 size=     768KiB time=00:00:02.40 bitrate=2621.6kbits/s speed=0.0131x elapsed=0:03:02.67    \nframe=  146 fps=0.8 q=20.1 size=     768KiB time=00:00:02.40 bitrate=2621.6kbits/s speed=0.0131x elapsed=0:03:03.22    \nframe=  146 fps=0.8 q=20.1 size=     768KiB time=00:00:02.40 bitrate=2621.6kbits/s speed=0.0131x elapsed=0:03:03.77    \nframe=  146 fps=0.8 q=20.1 size=     768KiB time=00:00:02.40 bitrate=2621.6kbits/s speed=0.013x elapsed=0:03:04.32    \nframe=  146 fps=0.8 q=20.1 size=     768KiB time=00:00:02.40 bitrate=2621.6kbits/s speed=0.013x elapsed=0:03:04.84    \nframe=  147 fps=0.8 q=14.0 size=     768KiB time=00:00:02.41 bitrate=2603.5kbits/s speed=0.013x elapsed=0:03:05.37    \nframe=  147 fps=0.8 q=14.0 size=     768KiB time=00:00:02.41 bitrate=2603.5kbits/s speed=0.013x elapsed=0:03:05.99    \nframe=  147 fps=0.8 q=14.0 size=     768KiB time=00:00:02.41 bitrate=2603.5kbits/s speed=0.013x elapsed=0:03:06.53    \nframe=  147 fps=0.8 q=14.0 size=     768KiB time=00:00:02.41 bitrate=2603.5kbits/s speed=0.0129x elapsed=0:03:07.08    \nframe=  147 fps=0.8 q=14.0 size=     768KiB time=00:00:02.41 bitrate=2603.5kbits/s speed=0.0129x elapsed=0:03:07.65    \nframe=  147 fps=0.8 q=14.0 size=     768KiB time=00:00:02.41 bitrate=2603.5kbits/s speed=0.0128x elapsed=0:03:08.19    \nframe=  147 fps=0.8 q=14.0 size=     768KiB time=00:00:02.41 bitrate=2603.5kbits/s speed=0.0128x elapsed=0:03:08.75    \nframe=  147 fps=0.8 q=14.0 size=     768KiB time=00:00:02.41 bitrate=2603.5kbits/s speed=0.0128x elapsed=0:03:09.28    \nframe=  147 fps=0.8 q=14.0 size=     768KiB time=00:00:02.41 bitrate=2603.5kbits/s speed=0.0127x elapsed=0:03:09.81    \nframe=  148 fps=0.8 q=19.1 size=     768KiB time=00:00:02.43 bitrate=2585.7kbits/s speed=0.0128x elapsed=0:03:10.36    \nframe=  149 fps=0.8 q=20.4 size=     768KiB time=00:00:02.45 bitrate=2568.1kbits/s speed=0.0128x elapsed=0:03:10.90    \nframe=  150 fps=0.8 q=19.8 size=     768KiB time=00:00:02.46 bitrate=2550.7kbits/s speed=0.0129x elapsed=0:03:11.43    \nframe=  150 fps=0.8 q=19.8 size=     768KiB time=00:00:02.46 bitrate=2550.7kbits/s speed=0.0128x elapsed=0:03:11.96    \nframe=  151 fps=0.8 q=20.4 size=     768KiB time=00:00:02.48 bitrate=2533.6kbits/s speed=0.0129x elapsed=0:03:12.48    \nframe=  152 fps=0.8 q=14.0 size=     768KiB time=00:00:02.50 bitrate=2516.7kbits/s speed=0.013x elapsed=0:03:13.00    \nframe=  153 fps=0.8 q=18.9 size=     768KiB time=00:00:02.51 bitrate=2500.1kbits/s speed=0.013x elapsed=0:03:13.53    \nframe=  153 fps=0.8 q=18.9 size=     768KiB time=00:00:02.51 bitrate=2500.1kbits/s speed=0.013x elapsed=0:03:14.12    \nframe=  153 fps=0.8 q=18.9 size=     768KiB time=00:00:02.51 bitrate=2500.1kbits/s speed=0.0129x elapsed=0:03:14.69    \nframe=  153 fps=0.8 q=18.9 size=     768KiB time=00:00:02.51 bitrate=2500.1kbits/s speed=0.0129x elapsed=0:03:15.21    \nframe=  154 fps=0.8 q=20.3 size=     768KiB time=00:00:02.53 bitrate=2483.6kbits/s speed=0.0129x elapsed=0:03:15.81    \nframe=  154 fps=0.8 q=20.3 size=     768KiB time=00:00:02.53 bitrate=2483.6kbits/s speed=0.0129x elapsed=0:03:16.33    \nframe=  154 fps=0.8 q=20.3 size=     768KiB time=00:00:02.53 bitrate=2483.6kbits/s speed=0.0129x elapsed=0:03:16.92    \nframe=  154 fps=0.8 q=20.3 size=     768KiB time=00:00:02.53 bitrate=2483.6kbits/s speed=0.0128x elapsed=0:03:17.45    \nframe=  154 fps=0.8 q=20.3 size=     768KiB time=00:00:02.53 bitrate=2483.6kbits/s speed=0.0128x elapsed=0:03:18.00    \nframe=  154 fps=0.8 q=20.3 size=     768KiB time=00:00:02.53 bitrate=2483.6kbits/s speed=0.0128x elapsed=0:03:18.59    \nframe=  155 fps=0.8 q=20.1 size=     768KiB time=00:00:02.55 bitrate=2467.4kbits/s speed=0.0128x elapsed=0:03:19.15    \nframe=  155 fps=0.8 q=20.1 size=     768KiB time=00:00:02.55 bitrate=2467.4kbits/s speed=0.0128x elapsed=0:03:19.67    \nframe=  155 fps=0.8 q=20.1 size=     768KiB time=00:00:02.55 bitrate=2467.4kbits/s speed=0.0127x elapsed=0:03:20.23    \nframe=  155 fps=0.8 q=20.1 size=     768KiB time=00:00:02.55 bitrate=2467.4kbits/s speed=0.0127x elapsed=0:03:20.83    \nframe=  156 fps=0.8 q=20.2 size=     768KiB time=00:00:02.56 bitrate=2451.4kbits/s speed=0.0127x elapsed=0:03:21.36    \nframe=  156 fps=0.8 q=20.2 size=     768KiB time=00:00:02.56 bitrate=2451.4kbits/s speed=0.0127x elapsed=0:03:21.89    \nframe=  157 fps=0.8 q=13.9 size=     768KiB time=00:00:02.58 bitrate=2435.5kbits/s speed=0.0128x elapsed=0:03:22.39    \nframe=  158 fps=0.8 q=19.0 size=     768KiB time=00:00:02.60 bitrate=2419.9kbits/s speed=0.0128x elapsed=0:03:22.92    \nframe=  159 fps=0.8 q=20.7 size=     768KiB time=00:00:02.61 bitrate=2404.5kbits/s speed=0.0129x elapsed=0:03:23.47    \nframe=  160 fps=0.8 q=20.7 size=     768KiB time=00:00:02.63 bitrate=2389.3kbits/s speed=0.0129x elapsed=0:03:23.97    \nframe=  161 fps=0.8 q=20.4 size=     768KiB time=00:00:02.65 bitrate=2374.3kbits/s speed=0.013x elapsed=0:03:24.50    \nframe=  161 fps=0.8 q=20.4 size=     768KiB time=00:00:02.65 bitrate=2374.3kbits/s speed=0.0129x elapsed=0:03:25.01    \nframe=  162 fps=0.8 q=14.0 size=     768KiB time=00:00:02.66 bitrate=2359.4kbits/s speed=0.013x elapsed=0:03:25.52    \nframe=  162 fps=0.8 q=14.0 size=     768KiB time=00:00:02.66 bitrate=2359.4kbits/s speed=0.0129x elapsed=0:03:26.03    \nframe=  163 fps=0.8 q=19.4 size=     768KiB time=00:00:02.68 bitrate=2344.8kbits/s speed=0.013x elapsed=0:03:26.58    \nframe=  164 fps=0.8 q=21.1 size=     768KiB time=00:00:02.70 bitrate=2330.3kbits/s speed=0.013x elapsed=0:03:27.11    \nframe=  165 fps=0.8 q=20.7 size=     768KiB time=00:00:02.71 bitrate=2316.0kbits/s speed=0.0131x elapsed=0:03:27.63    \nframe=  166 fps=0.8 q=21.2 size=     768KiB time=00:00:02.73 bitrate=2301.9kbits/s speed=0.0131x elapsed=0:03:28.15    \nframe=  166 fps=0.8 q=21.2 size=     768KiB time=00:00:02.73 bitrate=2301.9kbits/s speed=0.0131x elapsed=0:03:28.66    \nframe=  167 fps=0.8 q=14.1 size=     768KiB time=00:00:02.75 bitrate=2287.9kbits/s speed=0.0131x elapsed=0:03:29.17    \nframe=  167 fps=0.8 q=14.1 size=     768KiB time=00:00:02.75 bitrate=2287.9kbits/s speed=0.0131x elapsed=0:03:29.72    \nframe=  168 fps=0.8 q=19.4 size=     768KiB time=00:00:02.76 bitrate=2274.1kbits/s speed=0.0132x elapsed=0:03:30.22    \nframe=  169 fps=0.8 q=20.8 size=     768KiB time=00:00:02.78 bitrate=2260.5kbits/s speed=0.0132x elapsed=0:03:30.74    \nframe=  170 fps=0.8 q=20.5 size=     768KiB time=00:00:02.80 bitrate=2247.1kbits/s speed=0.0133x elapsed=0:03:31.29    \nframe=  170 fps=0.8 q=20.5 size=     768KiB time=00:00:02.80 bitrate=2247.1kbits/s speed=0.0132x elapsed=0:03:31.83    \nframe=  171 fps=0.8 q=20.4 size=     768KiB time=00:00:02.81 bitrate=2233.8kbits/s speed=0.0133x elapsed=0:03:32.35    \nframe=  172 fps=0.8 q=13.7 size=     768KiB time=00:00:02.83 bitrate=2220.6kbits/s speed=0.0133x elapsed=0:03:32.86    \nframe=  173 fps=0.8 q=19.2 size=    1024KiB time=00:00:02.85 bitrate=2943.5kbits/s speed=0.0134x elapsed=0:03:33.39    \nframe=  174 fps=0.8 q=21.3 size=    1024KiB time=00:00:02.86 bitrate=2926.4kbits/s speed=0.0134x elapsed=0:03:33.91    \nframe=  174 fps=0.8 q=21.3 size=    1024KiB time=00:00:02.86 bitrate=2926.4kbits/s speed=0.0134x elapsed=0:03:34.42    \nframe=  175 fps=0.8 q=20.1 size=    1024KiB time=00:00:02.88 bitrate=2909.5kbits/s speed=0.0134x elapsed=0:03:34.95    \nframe=  176 fps=0.8 q=20.2 size=    1024KiB time=00:00:02.90 bitrate=2892.7kbits/s speed=0.0135x elapsed=0:03:35.47    \nframe=  177 fps=0.8 q=13.7 size=    1024KiB time=00:00:02.91 bitrate=2876.2kbits/s speed=0.0135x elapsed=0:03:35.99    \nframe=  177 fps=0.8 q=13.7 size=    1024KiB time=00:00:02.91 bitrate=2876.2kbits/s speed=0.0135x elapsed=0:03:36.50    \nframe=  179 fps=0.8 q=20.6 size=    1024KiB time=00:00:02.95 bitrate=2843.7kbits/s speed=0.0136x elapsed=0:03:37.01    \nframe=  180 fps=0.8 q=20.5 size=    1024KiB time=00:00:02.96 bitrate=2827.7kbits/s speed=0.0136x elapsed=0:03:37.54    \nframe=  180 fps=0.8 q=20.5 size=    1024KiB time=00:00:02.96 bitrate=2827.7kbits/s speed=0.0136x elapsed=0:03:38.08    \nframe=  181 fps=0.8 q=20.6 size=    1024KiB time=00:00:02.98 bitrate=2811.9kbits/s speed=0.0136x elapsed=0:03:38.60    \nframe=  182 fps=0.8 q=13.8 size=    1024KiB time=00:00:03.00 bitrate=2796.3kbits/s speed=0.0137x elapsed=0:03:39.11    \nframe=  182 fps=0.8 q=13.8 size=    1024KiB time=00:00:03.00 bitrate=2796.3kbits/s speed=0.0137x elapsed=0:03:39.63    \nframe=  183 fps=0.8 q=19.3 size=    1024KiB time=00:00:03.01 bitrate=2780.9kbits/s speed=0.0137x elapsed=0:03:40.17    \nframe=  184 fps=0.8 q=21.2 size=    1024KiB time=00:00:03.03 bitrate=2765.6kbits/s speed=0.0137x elapsed=0:03:40.69    \nframe=  185 fps=0.8 q=20.9 size=    1024KiB time=00:00:03.05 bitrate=2750.5kbits/s speed=0.0138x elapsed=0:03:41.22    \nframe=  186 fps=0.8 q=21.1 size=    1024KiB time=00:00:03.06 bitrate=2735.5kbits/s speed=0.0138x elapsed=0:03:41.73    \nframe=  186 fps=0.8 q=21.1 size=    1024KiB time=00:00:03.06 bitrate=2735.5kbits/s speed=0.0138x elapsed=0:03:42.26    \nframe=  186 fps=0.8 q=21.1 size=    1024KiB time=00:00:03.06 bitrate=2735.5kbits/s speed=0.0138x elapsed=0:03:42.78    \nframe=  186 fps=0.8 q=21.1 size=    1024KiB time=00:00:03.06 bitrate=2735.5kbits/s speed=0.0137x elapsed=0:03:43.30    \nframe=  186 fps=0.8 q=21.1 size=    1024KiB time=00:00:03.06 bitrate=2735.5kbits/s speed=0.0137x elapsed=0:03:43.86    \nframe=  187 fps=0.8 q=13.7 size=    1024KiB time=00:00:03.08 bitrate=2720.7kbits/s speed=0.0137x elapsed=0:03:44.43    \nframe=  187 fps=0.8 q=13.7 size=    1024KiB time=00:00:03.08 bitrate=2720.7kbits/s speed=0.0137x elapsed=0:03:45.03    \nframe=  187 fps=0.8 q=13.7 size=    1024KiB time=00:00:03.08 bitrate=2720.7kbits/s speed=0.0137x elapsed=0:03:45.65    \nframe=  187 fps=0.8 q=13.7 size=    1024KiB time=00:00:03.08 bitrate=2720.7kbits/s speed=0.0136x elapsed=0:03:46.28    \nframe=  187 fps=0.8 q=13.7 size=    1024KiB time=00:00:03.08 bitrate=2720.7kbits/s speed=0.0136x elapsed=0:03:46.86    \nframe=  187 fps=0.8 q=13.7 size=    1024KiB time=00:00:03.08 bitrate=2720.7kbits/s speed=0.0136x elapsed=0:03:47.39    \nframe=  188 fps=0.8 q=19.1 size=    1024KiB time=00:00:03.10 bitrate=2706.1kbits/s speed=0.0136x elapsed=0:03:47.95    \nframe=  188 fps=0.8 q=19.1 size=    1024KiB time=00:00:03.10 bitrate=2706.1kbits/s speed=0.0136x elapsed=0:03:48.49    \nframe=  188 fps=0.8 q=19.1 size=    1024KiB time=00:00:03.10 bitrate=2706.1kbits/s speed=0.0135x elapsed=0:03:49.06    \nframe=  189 fps=0.8 q=20.3 size=    1024KiB time=00:00:03.11 bitrate=2691.6kbits/s speed=0.0136x elapsed=0:03:49.59    \nframe=  189 fps=0.8 q=20.3 size=    1024KiB time=00:00:03.11 bitrate=2691.6kbits/s speed=0.0135x elapsed=0:03:50.10    \nframe=  189 fps=0.8 q=20.3 size=    1024KiB time=00:00:03.11 bitrate=2691.6kbits/s speed=0.0135x elapsed=0:03:50.66    \nframe=  189 fps=0.8 q=20.3 size=    1024KiB time=00:00:03.11 bitrate=2691.6kbits/s speed=0.0135x elapsed=0:03:51.22    \nframe=  189 fps=0.8 q=20.3 size=    1024KiB time=00:00:03.11 bitrate=2691.6kbits/s speed=0.0134x elapsed=0:03:51.77    \nframe=  190 fps=0.8 q=20.6 size=    1024KiB time=00:00:03.13 bitrate=2677.3kbits/s speed=0.0135x elapsed=0:03:52.29    \nframe=  191 fps=0.8 q=20.7 size=    1024KiB time=00:00:03.15 bitrate=2663.2kbits/s speed=0.0135x elapsed=0:03:52.83    \nframe=  191 fps=0.8 q=20.7 size=    1024KiB time=00:00:03.15 bitrate=2663.2kbits/s speed=0.0135x elapsed=0:03:53.41    \nframe=  191 fps=0.8 q=20.7 size=    1024KiB time=00:00:03.15 bitrate=2663.2kbits/s speed=0.0135x elapsed=0:03:53.96    \nframe=  192 fps=0.8 q=13.7 size=    1024KiB time=00:00:03.16 bitrate=2649.1kbits/s speed=0.0135x elapsed=0:03:54.48    \nframe=  193 fps=0.8 q=19.2 size=    1024KiB time=00:00:03.18 bitrate=2635.3kbits/s speed=0.0135x elapsed=0:03:54.99    \nframe=  194 fps=0.8 q=20.4 size=    1024KiB time=00:00:03.20 bitrate=2621.6kbits/s speed=0.0136x elapsed=0:03:55.51    \nframe=  194 fps=0.8 q=20.4 size=    1024KiB time=00:00:03.20 bitrate=2621.6kbits/s speed=0.0136x elapsed=0:03:56.08    \nframe=  194 fps=0.8 q=20.4 size=    1024KiB time=00:00:03.20 bitrate=2621.6kbits/s speed=0.0135x elapsed=0:03:56.63    \nframe=  194 fps=0.8 q=20.4 size=    1024KiB time=00:00:03.20 bitrate=2621.6kbits/s speed=0.0135x elapsed=0:03:57.18    \nframe=  196 fps=0.8 q=20.7 size=    1024KiB time=00:00:03.23 bitrate=2594.5kbits/s speed=0.0136x elapsed=0:03:57.71    \nframe=  196 fps=0.8 q=20.7 size=    1024KiB time=00:00:03.23 bitrate=2594.5kbits/s speed=0.0136x elapsed=0:03:58.24    \nframe=  196 fps=0.8 q=20.7 size=    1024KiB time=00:00:03.23 bitrate=2594.5kbits/s speed=0.0135x elapsed=0:03:58.78    \nframe=  196 fps=0.8 q=20.7 size=    1024KiB time=00:00:03.23 bitrate=2594.5kbits/s speed=0.0135x elapsed=0:03:59.35    \nframe=  196 fps=0.8 q=20.7 size=    1024KiB time=00:00:03.23 bitrate=2594.5kbits/s speed=0.0135x elapsed=0:03:59.96    \nframe=  196 fps=0.8 q=20.7 size=    1024KiB time=00:00:03.23 bitrate=2594.5kbits/s speed=0.0134x elapsed=0:04:00.58    \nframe=  197 fps=0.8 q=13.8 size=    1024KiB time=00:00:03.25 bitrate=2581.2kbits/s speed=0.0135x elapsed=0:04:01.16    \nframe=  197 fps=0.8 q=13.8 size=    1024KiB time=00:00:03.25 bitrate=2581.2kbits/s speed=0.0134x elapsed=0:04:01.67    \nframe=  197 fps=0.8 q=13.8 size=    1024KiB time=00:00:03.25 bitrate=2581.2kbits/s speed=0.0134x elapsed=0:04:02.21    \nframe=  198 fps=0.8 q=19.0 size=    1024KiB time=00:00:03.26 bitrate=2568.0kbits/s speed=0.0135x elapsed=0:04:02.77    \nframe=  199 fps=0.8 q=20.6 size=    1024KiB time=00:00:03.28 bitrate=2555.0kbits/s speed=0.0135x elapsed=0:04:03.31    \nframe=  199 fps=0.8 q=20.6 size=    1024KiB time=00:00:03.28 bitrate=2555.0kbits/s speed=0.0135x elapsed=0:04:03.85    \nframe=  199 fps=0.8 q=20.6 size=    1024KiB time=00:00:03.28 bitrate=2555.0kbits/s speed=0.0134x elapsed=0:04:04.38    \nframe=  199 fps=0.8 q=20.6 size=    1024KiB time=00:00:03.28 bitrate=2555.0kbits/s speed=0.0134x elapsed=0:04:04.91    \nframe=  201 fps=0.8 q=20.3 size=    1024KiB time=00:00:03.31 bitrate=2529.3kbits/s speed=0.0135x elapsed=0:04:05.45    \nframe=  202 fps=0.8 q=13.4 size=    1024KiB time=00:00:03.33 bitrate=2516.7kbits/s speed=0.0136x elapsed=0:04:05.97    \nframe=  202 fps=0.8 q=13.4 size=    1024KiB time=00:00:03.33 bitrate=2516.7kbits/s speed=0.0135x elapsed=0:04:06.49    \nframe=  203 fps=0.8 q=19.1 size=    1024KiB time=00:00:03.35 bitrate=2504.2kbits/s speed=0.0136x elapsed=0:04:07.00    \nframe=  203 fps=0.8 q=19.1 size=    1024KiB time=00:00:03.35 bitrate=2504.2kbits/s speed=0.0135x elapsed=0:04:07.54    \nframe=  205 fps=0.8 q=20.6 size=    1024KiB time=00:00:03.38 bitrate=2479.5kbits/s speed=0.0136x elapsed=0:04:08.06    \nframe=  206 fps=0.8 q=20.7 size=    1024KiB time=00:00:03.40 bitrate=2467.3kbits/s speed=0.0137x elapsed=0:04:08.56    \nframe=  206 fps=0.8 q=20.7 size=    1024KiB time=00:00:03.40 bitrate=2467.3kbits/s speed=0.0136x elapsed=0:04:09.08    \nframe=  208 fps=0.8 q=19.1 size=    1024KiB time=00:00:03.43 bitrate=2443.4kbits/s speed=0.0138x elapsed=0:04:09.60    \nframe=  209 fps=0.8 q=21.1 size=    1024KiB time=00:00:03.45 bitrate=2431.6kbits/s speed=0.0138x elapsed=0:04:10.11    \nframe=  210 fps=0.8 q=21.2 size=    1024KiB time=00:00:03.46 bitrate=2419.9kbits/s speed=0.0138x elapsed=0:04:10.63    \nframe=  211 fps=0.8 q=20.2 size=    1024KiB time=00:00:03.48 bitrate=2408.3kbits/s speed=0.0139x elapsed=0:04:11.15    \nframe=  212 fps=0.8 q=14.0 size=    1024KiB time=00:00:03.50 bitrate=2396.8kbits/s speed=0.0139x elapsed=0:04:11.69    \nframe=  212 fps=0.8 q=14.0 size=    1024KiB time=00:00:03.50 bitrate=2396.8kbits/s speed=0.0139x elapsed=0:04:12.26    \nframe=  212 fps=0.8 q=14.0 size=    1024KiB time=00:00:03.50 bitrate=2396.8kbits/s speed=0.0138x elapsed=0:04:12.78    \nframe=  212 fps=0.8 q=14.0 size=    1024KiB time=00:00:03.50 bitrate=2396.8kbits/s speed=0.0138x elapsed=0:04:13.32    \nframe=  213 fps=0.8 q=19.2 size=    1024KiB time=00:00:03.51 bitrate=2385.5kbits/s speed=0.0139x elapsed=0:04:13.84    \nframe=  214 fps=0.8 q=20.4 size=    1024KiB time=00:00:03.53 bitrate=2374.2kbits/s speed=0.0139x elapsed=0:04:14.35    \nframe=  215 fps=0.8 q=20.1 size=    1024KiB time=00:00:03.55 bitrate=2363.1kbits/s speed=0.0139x elapsed=0:04:14.86    \nframe=  215 fps=0.8 q=20.1 size=    1024KiB time=00:00:03.55 bitrate=2363.1kbits/s speed=0.0139x elapsed=0:04:15.40    \nframe=  216 fps=0.8 q=20.2 size=    1024KiB time=00:00:03.56 bitrate=2352.0kbits/s speed=0.0139x elapsed=0:04:15.93    \nframe=  216 fps=0.8 q=20.2 size=    1024KiB time=00:00:03.56 bitrate=2352.0kbits/s speed=0.0139x elapsed=0:04:16.46    \nframe=  217 fps=0.8 q=14.7 size=    1024KiB time=00:00:03.58 bitrate=2341.1kbits/s speed=0.0139x elapsed=0:04:16.97    \nframe=  217 fps=0.8 q=14.7 size=    1024KiB time=00:00:03.58 bitrate=2341.1kbits/s speed=0.0139x elapsed=0:04:17.50    \nframe=  219 fps=0.8 q=20.5 size=    1280KiB time=00:00:03.61 bitrate=2899.4kbits/s speed=0.014x elapsed=0:04:18.02    \nframe=  220 fps=0.9 q=20.2 size=    1280KiB time=00:00:03.63 bitrate=2886.1kbits/s speed=0.0141x elapsed=0:04:18.55    \nframe=  220 fps=0.8 q=20.2 size=    1280KiB time=00:00:03.63 bitrate=2886.1kbits/s speed=0.014x elapsed=0:04:19.07    \nframe=  221 fps=0.9 q=20.2 size=    1280KiB time=00:00:03.65 bitrate=2872.9kbits/s speed=0.0141x elapsed=0:04:19.60    \nframe=  221 fps=0.8 q=20.2 size=    1280KiB time=00:00:03.65 bitrate=2872.9kbits/s speed=0.014x elapsed=0:04:20.13    \nframe=  221 fps=0.8 q=20.2 size=    1280KiB time=00:00:03.65 bitrate=2872.9kbits/s speed=0.014x elapsed=0:04:20.65    \nframe=  221 fps=0.8 q=20.2 size=    1280KiB time=00:00:03.65 bitrate=2872.9kbits/s speed=0.014x elapsed=0:04:21.21    \nframe=  222 fps=0.8 q=13.5 size=    1280KiB time=00:00:03.66 bitrate=2859.8kbits/s speed=0.014x elapsed=0:04:21.74    \nframe=  222 fps=0.8 q=13.5 size=    1280KiB time=00:00:03.66 bitrate=2859.8kbits/s speed=0.014x elapsed=0:04:22.27    \nframe=  223 fps=0.8 q=19.1 size=    1280KiB time=00:00:03.68 bitrate=2846.9kbits/s speed=0.014x elapsed=0:04:22.81    \nframe=  223 fps=0.8 q=19.1 size=    1280KiB time=00:00:03.68 bitrate=2846.9kbits/s speed=0.014x elapsed=0:04:23.33    \nframe=  224 fps=0.8 q=20.7 size=    1280KiB time=00:00:03.70 bitrate=2834.1kbits/s speed=0.014x elapsed=0:04:23.85    \nframe=  225 fps=0.9 q=20.5 size=    1280KiB time=00:00:03.71 bitrate=2821.4kbits/s speed=0.0141x elapsed=0:04:24.37    \nframe=  225 fps=0.8 q=20.5 size=    1280KiB time=00:00:03.71 bitrate=2821.4kbits/s speed=0.014x elapsed=0:04:24.88    \nframe=  226 fps=0.9 q=20.7 size=    1280KiB time=00:00:03.73 bitrate=2808.8kbits/s speed=0.0141x elapsed=0:04:25.40    \nframe=  226 fps=0.8 q=20.7 size=    1280KiB time=00:00:03.73 bitrate=2808.8kbits/s speed=0.014x elapsed=0:04:25.91    \nframe=  227 fps=0.9 q=13.9 size=    1280KiB time=00:00:03.75 bitrate=2796.3kbits/s speed=0.0141x elapsed=0:04:26.44    \nframe=  227 fps=0.9 q=13.9 size=    1280KiB time=00:00:03.75 bitrate=2796.3kbits/s speed=0.014x elapsed=0:04:26.96    \nframe=  229 fps=0.9 q=21.7 size=    1280KiB time=00:00:03.78 bitrate=2771.7kbits/s speed=0.0141x elapsed=0:04:27.47    \nframe=  230 fps=0.9 q=21.5 size=    1280KiB time=00:00:03.80 bitrate=2759.5kbits/s speed=0.0142x elapsed=0:04:28.00    \nframe=  230 fps=0.9 q=21.5 size=    1280KiB time=00:00:03.80 bitrate=2759.5kbits/s speed=0.0141x elapsed=0:04:28.55    \nframe=  230 fps=0.9 q=21.5 size=    1280KiB time=00:00:03.80 bitrate=2759.5kbits/s speed=0.0141x elapsed=0:04:29.08    \nframe=  230 fps=0.9 q=21.5 size=    1280KiB time=00:00:03.80 bitrate=2759.5kbits/s speed=0.0141x elapsed=0:04:29.60    \nframe=  231 fps=0.9 q=22.1 size=    1280KiB time=00:00:03.81 bitrate=2747.5kbits/s speed=0.0141x elapsed=0:04:30.11    \nframe=  232 fps=0.9 q=14.1 size=    1280KiB time=00:00:03.83 bitrate=2735.5kbits/s speed=0.0142x elapsed=0:04:30.63    \nframe=  233 fps=0.9 q=20.2 size=    1280KiB time=00:00:03.85 bitrate=2723.7kbits/s speed=0.0142x elapsed=0:04:31.14    \nframe=  234 fps=0.9 q=22.7 size=    1280KiB time=00:00:03.86 bitrate=2711.9kbits/s speed=0.0142x elapsed=0:04:31.68    \nframe=  236 fps=0.9 q=22.0 size=    1280KiB time=00:00:03.90 bitrate=2688.7kbits/s speed=0.0143x elapsed=0:04:32.21    \nframe=  236 fps=0.9 q=22.0 size=    1280KiB time=00:00:03.90 bitrate=2688.7kbits/s speed=0.0143x elapsed=0:04:32.72    \nframe=  236 fps=0.9 q=22.0 size=    1280KiB time=00:00:03.90 bitrate=2688.7kbits/s speed=0.0143x elapsed=0:04:33.24    \nframe=  236 fps=0.9 q=22.0 size=    1280KiB time=00:00:03.90 bitrate=2688.7kbits/s speed=0.0142x elapsed=0:04:33.78    \nframe=  236 fps=0.9 q=22.0 size=    1280KiB time=00:00:03.90 bitrate=2688.7kbits/s speed=0.0142x elapsed=0:04:34.30    \nframe=  237 fps=0.9 q=14.1 size=    1280KiB time=00:00:03.91 bitrate=2677.3kbits/s speed=0.0143x elapsed=0:04:34.82    \nframe=  238 fps=0.9 q=20.2 size=    1280KiB time=00:00:03.93 bitrate=2666.0kbits/s speed=0.0143x elapsed=0:04:35.34    \nframe=  238 fps=0.9 q=20.2 size=    1280KiB time=00:00:03.93 bitrate=2666.0kbits/s speed=0.0143x elapsed=0:04:35.85    \nframe=  239 fps=0.9 q=21.8 size=    1280KiB time=00:00:03.95 bitrate=2654.7kbits/s speed=0.0143x elapsed=0:04:36.38    \nframe=  240 fps=0.9 q=22.2 size=    1280KiB time=00:00:03.96 bitrate=2643.6kbits/s speed=0.0143x elapsed=0:04:36.89    \nframe=  240 fps=0.9 q=22.2 size=    1280KiB time=00:00:03.96 bitrate=2643.6kbits/s speed=0.0143x elapsed=0:04:37.41    \nframe=  241 fps=0.9 q=22.3 size=    1280KiB time=00:00:03.98 bitrate=2632.5kbits/s speed=0.0143x elapsed=0:04:37.93    \nframe=  242 fps=0.9 q=13.9 size=    1280KiB time=00:00:04.00 bitrate=2621.5kbits/s speed=0.0144x elapsed=0:04:38.47    \nframe=  242 fps=0.9 q=13.9 size=    1280KiB time=00:00:04.00 bitrate=2621.5kbits/s speed=0.0143x elapsed=0:04:39.01    \nframe=  244 fps=0.9 q=21.6 size=    1280KiB time=00:00:04.03 bitrate=2599.9kbits/s speed=0.0144x elapsed=0:04:39.54    \nframe=  244 fps=0.9 q=21.6 size=    1280KiB time=00:00:04.03 bitrate=2599.9kbits/s speed=0.0144x elapsed=0:04:40.06    \nframe=  245 fps=0.9 q=22.2 size=    1280KiB time=00:00:04.05 bitrate=2589.2kbits/s speed=0.0144x elapsed=0:04:40.60    \nframe=  245 fps=0.9 q=22.2 size=    1280KiB time=00:00:04.05 bitrate=2589.2kbits/s speed=0.0144x elapsed=0:04:41.14    \nframe=  246 fps=0.9 q=21.7 size=    1280KiB time=00:00:04.06 bitrate=2578.6kbits/s speed=0.0144x elapsed=0:04:41.68    \nframe=  247 fps=0.9 q=11.5 size=    1280KiB time=00:00:04.08 bitrate=2568.0kbits/s speed=0.0145x elapsed=0:04:42.21    \nframe=  248 fps=0.9 q=19.8 size=    1280KiB time=00:00:04.10 bitrate=2557.6kbits/s speed=0.0145x elapsed=0:04:42.73    \nframe=  248 fps=0.9 q=19.8 size=    1280KiB time=00:00:04.10 bitrate=2557.6kbits/s speed=0.0145x elapsed=0:04:43.25    \nframe=  249 fps=0.9 q=21.9 size=    1280KiB time=00:00:04.11 bitrate=2547.2kbits/s speed=0.0145x elapsed=0:04:43.79    \nframe=  249 fps=0.9 q=21.9 size=    1280KiB time=00:00:04.11 bitrate=2547.2kbits/s speed=0.0145x elapsed=0:04:44.33    \nframe=  251 fps=0.9 q=21.4 size=    1280KiB time=00:00:04.15 bitrate=2526.8kbits/s speed=0.0146x elapsed=0:04:44.83    \nframe=  251 fps=0.9 q=21.4 size=    1280KiB time=00:00:04.15 bitrate=2526.8kbits/s speed=0.0145x elapsed=0:04:45.35    \nframe=  252 fps=0.9 q=12.3 size=    1280KiB time=00:00:04.16 bitrate=2516.7kbits/s speed=0.0146x elapsed=0:04:45.88    \nframe=  252 fps=0.9 q=12.3 size=    1280KiB time=00:00:04.16 bitrate=2516.7kbits/s speed=0.0145x elapsed=0:04:46.40    \nframe=  252 fps=0.9 q=12.3 size=    1280KiB time=00:00:04.16 bitrate=2516.7kbits/s speed=0.0145x elapsed=0:04:46.93    \nframe=  254 fps=0.9 q=19.7 size=    1280KiB time=00:00:04.20 bitrate=2496.7kbits/s speed=0.0146x elapsed=0:04:47.44    \nframe=  255 fps=0.9 q=19.7 size=    1536KiB time=00:00:04.21 bitrate=2984.2kbits/s speed=0.0146x elapsed=0:04:47.96    \nframe=  255 fps=0.9 q=19.7 size=    1536KiB time=00:00:04.21 bitrate=2984.2kbits/s speed=0.0146x elapsed=0:04:48.48    \nframe=  256 fps=0.9 q=19.9 size=    1536KiB time=00:00:04.23 bitrate=2972.4kbits/s speed=0.0146x elapsed=0:04:49.02    \nframe=  256 fps=0.9 q=19.9 size=    1536KiB time=00:00:04.23 bitrate=2972.4kbits/s speed=0.0146x elapsed=0:04:49.54    \nframe=  257 fps=0.9 q=13.8 size=    1536KiB time=00:00:04.25 bitrate=2960.8kbits/s speed=0.0147x elapsed=0:04:50.06    \nframe=  258 fps=0.9 q=19.6 size=    1536KiB time=00:00:04.26 bitrate=2949.2kbits/s speed=0.0147x elapsed=0:04:50.57    \nframe=  258 fps=0.9 q=19.6 size=    1536KiB time=00:00:04.26 bitrate=2949.2kbits/s speed=0.0147x elapsed=0:04:51.09    \nframe=  259 fps=0.9 q=20.8 size=    1536KiB time=00:00:04.28 bitrate=2937.7kbits/s speed=0.0147x elapsed=0:04:51.59    \nframe=  261 fps=0.9 q=22.1 size=    1536KiB time=00:00:04.31 bitrate=2915.0kbits/s speed=0.0148x elapsed=0:04:52.12    \nframe=  261 fps=0.9 q=22.1 size=    1536KiB time=00:00:04.31 bitrate=2915.0kbits/s speed=0.0148x elapsed=0:04:52.64    \nframe=  262 fps=0.9 q=13.8 size=    1536KiB time=00:00:04.33 bitrate=2903.8kbits/s speed=0.0148x elapsed=0:04:53.15    \nframe=  263 fps=0.9 q=20.3 size=    1536KiB time=00:00:04.35 bitrate=2892.7kbits/s speed=0.0148x elapsed=0:04:53.65    \nframe=  263 fps=0.9 q=20.3 size=    1536KiB time=00:00:04.35 bitrate=2892.7kbits/s speed=0.0148x elapsed=0:04:54.20    \nframe=  263 fps=0.9 q=20.3 size=    1536KiB time=00:00:04.35 bitrate=2892.7kbits/s speed=0.0148x elapsed=0:04:54.71    \nframe=  263 fps=0.9 q=20.3 size=    1536KiB time=00:00:04.35 bitrate=2892.7kbits/s speed=0.0147x elapsed=0:04:55.27    \nframe=  264 fps=0.9 q=22.7 size=    1536KiB time=00:00:04.36 bitrate=2881.7kbits/s speed=0.0148x elapsed=0:04:55.85    \nframe=  264 fps=0.9 q=22.7 size=    1536KiB time=00:00:04.36 bitrate=2881.7kbits/s speed=0.0147x elapsed=0:04:56.37    \nframe=  264 fps=0.9 q=22.7 size=    1536KiB time=00:00:04.36 bitrate=2881.7kbits/s speed=0.0147x elapsed=0:04:56.89    \nframe=  266 fps=0.9 q=22.2 size=    1536KiB time=00:00:04.40 bitrate=2859.8kbits/s speed=0.0148x elapsed=0:04:57.41    \nframe=  266 fps=0.9 q=22.2 size=    1536KiB time=00:00:04.40 bitrate=2859.8kbits/s speed=0.0148x elapsed=0:04:57.93    \nframe=  267 fps=0.9 q=13.9 size=    1536KiB time=00:00:04.41 bitrate=2849.0kbits/s speed=0.0148x elapsed=0:04:58.46    \nframe=  269 fps=0.9 q=21.5 size=    1536KiB time=00:00:04.45 bitrate=2827.7kbits/s speed=0.0149x elapsed=0:04:58.98    \nframe=  270 fps=0.9 q=21.4 size=    1536KiB time=00:00:04.46 bitrate=2817.1kbits/s speed=0.0149x elapsed=0:04:59.50    \nframe=  271 fps=0.9 q=21.0 size=    1536KiB time=00:00:04.48 bitrate=2806.7kbits/s speed=0.0149x elapsed=0:05:00.00    \nframe=  273 fps=0.9 q=19.8 size=    1536KiB time=00:00:04.51 bitrate=2786.0kbits/s speed=0.015x elapsed=0:05:00.53    \nframe=  274 fps=0.9 q=22.5 size=    1536KiB time=00:00:04.53 bitrate=2775.7kbits/s speed=0.0151x elapsed=0:05:01.04    \nframe=  275 fps=0.9 q=22.1 size=    1536KiB time=00:00:04.55 bitrate=2765.6kbits/s speed=0.0151x elapsed=0:05:01.55    \nframe=  276 fps=0.9 q=21.0 size=    1536KiB time=00:00:04.56 bitrate=2755.5kbits/s speed=0.0151x elapsed=0:05:02.07    \nframe=  278 fps=0.9 q=19.4 size=    1536KiB time=00:00:04.60 bitrate=2735.5kbits/s speed=0.0152x elapsed=0:05:02.59    \nframe=  278 fps=0.9 q=19.4 size=    1536KiB time=00:00:04.60 bitrate=2735.5kbits/s speed=0.0152x elapsed=0:05:03.10    \nframe=  280 fps=0.9 q=20.3 size=    1536KiB time=00:00:04.63 bitrate=2715.8kbits/s speed=0.0153x elapsed=0:05:03.61    \nframe=  281 fps=0.9 q=21.1 size=    1536KiB time=00:00:04.65 bitrate=2706.1kbits/s speed=0.0153x elapsed=0:05:04.13    \nframe=  283 fps=0.9 q=19.3 size=    1536KiB time=00:00:04.68 bitrate=2686.8kbits/s speed=0.0154x elapsed=0:05:04.64    \nframe=  284 fps=0.9 q=20.7 size=    1536KiB time=00:00:04.70 bitrate=2677.3kbits/s speed=0.0154x elapsed=0:05:05.16    \nframe=  285 fps=0.9 q=21.2 size=    1536KiB time=00:00:04.71 bitrate=2667.8kbits/s speed=0.0154x elapsed=0:05:05.68    \nframe=  286 fps=0.9 q=20.6 size=    1536KiB time=00:00:04.73 bitrate=2658.4kbits/s speed=0.0155x elapsed=0:05:06.19    \nframe=  287 fps=0.9 q=14.5 size=    1536KiB time=00:00:04.75 bitrate=2649.1kbits/s speed=0.0155x elapsed=0:05:06.71    \nframe=  289 fps=0.9 q=20.3 size=    1536KiB time=00:00:04.78 bitrate=2630.6kbits/s speed=0.0156x elapsed=0:05:07.23    \nframe=  291 fps=0.9 q=20.4 size=    1536KiB time=00:00:04.81 bitrate=2612.4kbits/s speed=0.0157x elapsed=0:05:07.74    \nframe=  292 fps=0.9 q=14.4 size=    1536KiB time=00:00:04.83 bitrate=2603.4kbits/s speed=0.0157x elapsed=0:05:08.26    \nframe=  292 fps=0.9 q=14.4 size=    1536KiB time=00:00:04.83 bitrate=2603.4kbits/s speed=0.0157x elapsed=0:05:08.78    \nframe=  293 fps=0.9 q=16.9 size=    1536KiB time=00:00:04.85 bitrate=2594.5kbits/s speed=0.0157x elapsed=0:05:09.30    \nframe=  294 fps=0.9 q=20.2 size=    1536KiB time=00:00:04.86 bitrate=2585.6kbits/s speed=0.0157x elapsed=0:05:09.81    \nframe=  294 fps=0.9 q=20.2 size=    1536KiB time=00:00:04.86 bitrate=2585.6kbits/s speed=0.0157x elapsed=0:05:10.34    \nframe=  296 fps=1.0 q=16.4 size=    1536KiB time=00:00:04.90 bitrate=2568.0kbits/s speed=0.0158x elapsed=0:05:10.86    \nframe=  297 fps=1.0 q=17.0 size=    1536KiB time=00:00:04.91 bitrate=2559.3kbits/s speed=0.0158x elapsed=0:05:11.36    \n[mp4 @ 000001cee2daac00] Starting second pass: moving the moov atom to the beginning of the file\n[out#0/mp4 @ 000001cee2daaac0] video:1802KiB audio:0KiB subtitle:0KiB other streams:0KiB global headers:2KiB muxing overhead: 0.369445%\nframe=  300 fps=1.0 q=18.1 Lsize=    1809KiB time=00:00:04.96 bitrate=2983.6kbits/s speed=0.0159x elapsed=0:05:11.78    \nx265 [info]: frame I:      2, Avg QP:20.89  kb/s: 9862.08 \nx265 [info]: frame P:     59, Avg QP:15.13  kb/s: 9422.42 \nx265 [info]: frame B:    239, Avg QP:20.75  kb/s: 1295.41 \nx265 [info]: Weighted P-Frames: Y:0.0% UV:0.0%\n\nencoded 300 frames in 311.68s (0.96 fps), 2950.83 kb/s, Avg QP:19.65\n",
  "seconds": 311.9926805496216,
  "probe_out": {}
}